<svg width="430" height="134" viewBox="0 0 430 134" fill="none" xmlns="http://www.w3.org/2000/svg">
<path d="M218.718 81.2907C218.202 80.5513 218.046 80.5513 217.844 80.5513C217.553 80.5513 217.307 80.7753 217.307 81.0442C217.307 81.3355 217.531 81.4924 217.844 81.4924C218.942 81.4924 219.748 82.3439 219.748 83.285C219.77 84.3829 218.897 85.212 217.777 85.212C217.307 85.212 216.612 85.1672 215.806 83.8676L216.926 83.1505C217.351 83.8003 217.598 83.8452 217.777 83.8452C218.023 83.8452 218.314 83.6659 218.292 83.397C218.292 83.1505 218.046 82.8592 217.777 82.8592C216.5 82.8592 215.828 82.075 215.828 81.0218C215.828 79.9911 216.702 79.1172 217.777 79.1172C218.337 79.1172 219.009 79.162 219.815 80.5064L218.718 81.2907Z" fill="#FDCF0A"/>
<path d="M234.126 85.1223V79.1843C234.126 79.1843 237.172 79.1843 237.911 79.1843V80.6408C237.284 80.6408 236.209 80.6408 235.582 80.6408V81.4475C236.343 81.4475 237.351 81.4475 237.911 81.4475V82.8815C237.284 82.8815 236.343 82.8815 235.582 82.8815V83.6882C236.298 83.6882 237.351 83.6882 237.911 83.6882V85.1447C237.149 85.1223 234.126 85.1223 234.126 85.1223Z" fill="#FDCF0A"/>
<path d="M255.133 81.2907C254.618 80.5513 254.461 80.5513 254.26 80.5513C253.969 80.5513 253.722 80.7753 253.722 81.0442C253.722 81.3355 253.946 81.4924 254.26 81.4924C255.357 81.4924 256.163 82.3439 256.186 83.285C256.208 84.3829 255.335 85.212 254.215 85.212C253.745 85.212 253.05 85.1672 252.244 83.8676L253.364 83.1505C253.789 83.8003 254.013 83.8452 254.215 83.8452C254.461 83.8452 254.752 83.6659 254.73 83.397C254.73 83.1505 254.484 82.8592 254.215 82.8592C252.938 82.8592 252.267 82.075 252.267 81.0218C252.267 79.9911 253.14 79.1172 254.215 79.1172C254.775 79.1172 255.447 79.162 256.253 80.5064L255.133 81.2907Z" fill="#FDCF0A"/>
<path d="M273.363 81.2907C272.848 80.5513 272.692 80.5513 272.49 80.5513C272.199 80.5513 271.952 80.7753 271.952 81.0442C271.952 81.3355 272.176 81.4924 272.49 81.4924C273.587 81.4924 274.394 82.3439 274.416 83.285C274.438 84.3829 273.565 85.212 272.445 85.212C271.975 85.212 271.281 85.1672 270.474 83.8676L271.594 83.1505C272.02 83.8003 272.244 83.8452 272.445 83.8452C272.692 83.8452 272.983 83.6659 272.96 83.397C272.96 83.1505 272.714 82.8592 272.445 82.8592C271.169 82.8592 270.497 82.075 270.497 81.0218C270.497 79.9911 271.37 79.1172 272.445 79.1172C273.005 79.1172 273.677 79.162 274.483 80.5064L273.363 81.2907Z" fill="#FDCF0A"/>
<path d="M289.959 85.1448C289.959 84.4277 289.959 79.9462 289.959 79.2068H291.414C291.414 79.9462 291.414 84.4277 291.414 85.1448H289.959Z" fill="#FDCF0A"/>
<path d="M308.973 85.3015C307.226 85.3015 305.793 83.8675 305.793 82.1645C305.793 80.4839 307.248 79.0723 308.973 79.0723C310.697 79.0723 312.108 80.5064 312.108 82.1645C312.086 83.8675 310.697 85.3015 308.973 85.3015ZM308.973 80.5736C308.032 80.5736 307.315 81.313 307.315 82.1869C307.315 83.0832 308.032 83.8002 308.973 83.8002C309.869 83.8002 310.563 83.0832 310.563 82.1869C310.563 81.313 309.846 80.5736 308.973 80.5736Z" fill="#FDCF0A"/>
<path d="M325.68 81.8732C325.68 81.9853 325.68 82.1421 325.68 82.2766C325.68 83.2849 325.68 84.6966 325.68 85.1447H324.224C324.224 84.4725 324.224 78.8931 324.224 78.8931L328.569 82.4558C328.569 82.3662 328.547 82.2542 328.547 82.1646C328.547 81.0666 328.547 79.6549 328.547 79.2292H330.002C330.002 79.9014 330.002 85.4808 330.002 85.4808L325.68 81.8732Z" fill="#FDCF0A"/>
<path d="M346.217 81.2907C345.702 80.5513 345.545 80.5513 345.344 80.5513C345.052 80.5513 344.806 80.7753 344.806 81.0442C344.806 81.3355 345.03 81.4924 345.344 81.4924C346.441 81.4924 347.247 82.3439 347.27 83.285C347.292 84.3829 346.419 85.212 345.299 85.212C344.829 85.212 344.134 85.1672 343.328 83.8676L344.448 83.1505C344.873 83.8003 345.097 83.8452 345.299 83.8452C345.545 83.8452 345.836 83.6659 345.814 83.397C345.814 83.1505 345.568 82.8592 345.299 82.8592C344.022 82.8592 343.35 82.075 343.35 81.0218C343.35 79.9911 344.224 79.1172 345.299 79.1172C345.859 79.1172 346.531 79.162 347.337 80.5064L346.217 81.2907Z" fill="#FDCF0A"/>
<path d="M263.352 7.07739V37.91H272.624V40.1731H256.813V7.07739H263.352Z" fill="white"/>
<path d="M281 14.0686H275.245L270.161 31.2775C275.222 31.2775 280.709 31.2775 285.793 31.2775L281 14.0686ZM273.207 29.4625L276.073 19.4688L278.738 29.4625H273.207Z" fill="white"/>
<path d="M248.123 14.0686H242.368L237.284 31.2775C242.345 31.2775 247.832 31.2775 252.916 31.2775L248.123 14.0686ZM240.352 29.4625L243.219 19.4688L245.884 29.4625H240.352Z" fill="white"/>
<path d="M215.784 40.4645V17.9226H225.817C230.968 17.9226 233.566 19.76 233.566 23.4572C233.566 26.0789 231.998 27.7595 228.885 28.4989C232.648 29.2383 234.507 31.2326 234.507 34.4817C234.507 38.4702 231.976 40.4869 226.937 40.4869H215.784V40.4645ZM222.346 27.737H224.361C226.22 27.737 227.161 26.3702 227.161 23.6141C227.161 21.0596 226.175 19.8048 224.205 19.8048H222.346V27.737ZM222.346 38.6046H224.205C226.646 38.6046 227.877 37.2154 227.877 34.4145C227.877 31.2102 226.623 29.5969 224.093 29.5969H222.346V38.6046Z" fill="white"/>
<path d="M307.293 17.9226V40.4645H302.299L292.893 26.1909V40.4645H290.698V17.9226H294.841L305.121 33.3389V17.9226H307.293Z" fill="white"/>
<path d="M326.173 31.4119L328.972 32.1289C329.017 32.7115 329.039 33.2045 329.039 33.6078C329.039 35.8037 328.256 37.5515 326.665 38.8736C325.075 40.1956 322.948 40.8454 320.283 40.8454C313.609 40.8454 310.249 37.081 310.249 29.5521C310.249 25.4067 310.72 23.6813 313.183 20.858C315.132 18.6397 317.662 17.5193 320.798 17.5193C325.68 17.5193 328.121 19.8721 328.121 24.5552L325.322 25.8548C325.367 25.1826 325.367 24.6897 325.367 24.3087C325.367 20.97 324.045 19.3119 321.38 19.3119C318.558 19.3119 317.147 22.8523 317.147 29.9106C317.147 35.983 318.715 39.008 321.873 39.008C323.172 39.008 324.247 38.4926 325.12 37.4619C325.994 36.4311 326.419 35.1315 326.419 33.5854C326.374 33.1148 326.307 32.3978 326.173 31.4119Z" fill="white"/>
<path d="M345.903 17.9226V20.1858H337.819V27.02H344.605V29.2832H337.819V38.2237H347.27V40.4869H331.279V17.9226H345.903Z" fill="white"/>
<path d="M223.757 53.259V54.4914H219.322V58.5696H223.085V59.802H219.322V65.4935H215.784V53.2814H223.757V53.259Z" fill="white"/>
<path d="M229.938 53.0574C233.499 53.0574 235.268 55.1637 235.268 59.3763C235.268 63.5889 233.454 65.6951 229.848 65.6951C226.22 65.6951 224.428 63.544 224.428 59.2418C224.428 55.0964 226.265 53.0574 229.938 53.0574ZM229.848 54.0209C229.176 54.0209 228.728 54.3794 228.505 55.1189C228.281 55.8583 228.146 57.27 228.146 59.3539C228.146 61.4377 228.258 62.8494 228.505 63.5889C228.728 64.3283 229.199 64.6868 229.848 64.6868C230.498 64.6868 230.968 64.3283 231.214 63.5889C231.461 62.8494 231.573 61.4377 231.573 59.3539C231.573 57.27 231.461 55.8583 231.214 55.1189C230.968 54.4018 230.52 54.0209 229.848 54.0209Z" fill="white"/>
<path d="M236.836 65.4711V53.259H242.076C243.443 53.259 244.54 53.5503 245.346 54.1329C246.175 54.7155 246.578 55.4774 246.578 56.4409C246.578 57.9198 245.705 58.8833 243.958 59.3314C244.854 59.6676 245.436 60.0261 245.705 60.4294C245.973 60.8327 246.152 61.5946 246.242 62.7598C246.354 64.1266 246.578 65.0453 246.936 65.4711H243.084C242.838 64.9109 242.726 64.1938 242.726 63.3424L242.703 62.6253L242.681 61.7066C242.681 60.295 242.121 59.6003 240.979 59.6003H240.374V65.4711H236.836ZM240.397 58.592H241.113C242.457 58.592 243.129 57.8974 243.129 56.4857C243.129 55.074 242.457 54.3794 241.113 54.3794H240.397V58.592Z" fill="white"/>
<path d="M258.067 57.0235V65.5159H253.118V48.4639H258.067V55.3205H262.098V48.4639H267.048V65.5159H262.098V57.0235H258.067Z" fill="white"/>
<path d="M281 48.4638V50.1668H274.886V55.3205H280.015V57.0234H274.886V63.7905H282.031V65.4934H269.937V48.4414L281 48.4638Z" fill="white"/>
<path d="M291.795 48.4639L296.543 65.5159H291.571L290.563 61.8187H285.435L284.36 65.5159H282.434L287.473 48.4639H291.795ZM285.927 60.0933H290.115L288.1 52.542L285.927 60.0933Z" fill="white"/>
<path d="M302.366 48.4639V63.8129H309.376V65.5159H297.417V48.4639H302.366Z" fill="white"/>
<path d="M315.356 48.4639V65.5159H310.406V48.4639H315.356Z" fill="white"/>
<path d="M330.786 48.4639V65.5159H327.001L319.88 54.7155V65.5159H318.222V48.4639H321.358L329.129 60.1157V48.4639H330.786Z" fill="white"/>
<path d="M340.282 56.3065H347.292V65.5159H345.724L345.187 64.3508C343.821 65.3367 342.365 65.8072 340.842 65.8072C338.334 65.8072 336.363 65.0454 334.974 63.5441C333.586 62.0204 332.892 59.9141 332.892 57.158C332.892 54.4915 333.631 52.318 335.109 50.6598C336.587 49.0017 338.513 48.1726 340.909 48.1726C344.045 48.1726 345.971 49.7859 346.643 52.9902L344.313 54.0433V53.64L344.269 52.7213C344.112 50.7046 343.194 49.7187 341.492 49.7187C340.237 49.7187 339.386 50.2565 338.938 51.3096C338.49 52.3628 338.244 54.357 338.244 57.27C338.244 59.9813 338.423 61.8411 338.804 62.8046C339.185 63.7906 339.879 64.2611 340.909 64.2611C342.141 64.2611 342.746 63.5889 342.746 62.222V58.0319H340.282V56.3065Z" fill="white"/>
<path d="M347.292 14.0908H215.784V14.5614H347.292V14.0908Z" fill="white"/>
<path d="M347.292 44.6099H215.784V45.0804H347.292V44.6099Z" fill="white"/>
<path d="M347.314 71.0056H215.784V71.4762H347.314V71.0056Z" fill="white"/>
<path d="M347.494 92.1582H215.963V92.6288H347.494V92.1582Z" fill="black"/>
<path d="M221.249 103.048C221.629 103.048 221.943 102.914 222.212 102.645C222.48 102.376 222.615 102.04 222.615 101.681C222.615 101.323 222.48 100.987 222.212 100.718C221.943 100.449 221.607 100.314 221.249 100.314C220.868 100.314 220.554 100.449 220.286 100.718C220.017 100.987 219.882 101.323 219.882 101.681C219.882 102.04 220.017 102.376 220.286 102.645C220.554 102.914 220.89 103.048 221.249 103.048Z" fill="white"/>
<path d="M224.317 103.048C224.698 103.048 225.033 102.914 225.302 102.645C225.571 102.376 225.705 102.04 225.705 101.681C225.705 101.323 225.571 100.987 225.302 100.718C225.033 100.449 224.698 100.314 224.317 100.314C223.936 100.314 223.623 100.449 223.354 100.718C223.085 100.987 222.951 101.323 222.951 101.681C222.951 102.04 223.085 102.376 223.354 102.645C223.623 102.914 223.958 103.048 224.317 103.048Z" fill="white"/>
<path d="M232.603 116.246C232.223 116.246 231.909 116.381 231.64 116.649C231.371 116.918 231.237 117.254 231.237 117.613C231.237 117.971 231.371 118.308 231.64 118.576C231.909 118.845 232.245 118.98 232.603 118.98C232.984 118.98 233.298 118.845 233.566 118.576C233.835 118.308 233.969 117.971 233.969 117.613C233.969 117.254 233.835 116.918 233.566 116.649C233.298 116.381 232.962 116.246 232.603 116.246Z" fill="white"/>
<path d="M235.671 116.246C235.291 116.246 234.977 116.381 234.708 116.649C234.44 116.918 234.305 117.254 234.305 117.613C234.305 117.971 234.44 118.308 234.708 118.576C234.977 118.845 235.313 118.98 235.671 118.98C236.052 118.98 236.388 118.845 236.657 118.576C236.926 118.308 237.06 117.971 237.06 117.613C237.06 117.254 236.926 116.918 236.657 116.649C236.366 116.381 236.052 116.246 235.671 116.246Z" fill="white"/>
<path d="M246.668 101.345C247.049 101.345 247.385 101.211 247.653 100.942C247.922 100.673 248.056 100.337 248.056 99.9784C248.056 99.5975 247.922 99.2838 247.653 99.0149C247.385 98.746 247.049 98.6116 246.668 98.6116C246.287 98.6116 245.974 98.746 245.705 99.0149C245.436 99.2838 245.302 99.6199 245.302 99.9784C245.302 100.359 245.436 100.673 245.705 100.942C245.974 101.211 246.31 101.345 246.668 101.345Z" fill="white"/>
<path d="M249.758 101.345C250.139 101.345 250.453 101.211 250.721 100.942C250.99 100.673 251.125 100.337 251.125 99.9784C251.125 99.5975 250.99 99.2838 250.721 99.0149C250.453 98.746 250.117 98.6116 249.758 98.6116C249.378 98.6116 249.064 98.746 248.795 99.0149C248.527 99.2838 248.392 99.6199 248.392 99.9784C248.392 100.359 248.527 100.673 248.795 100.942C249.064 101.211 249.378 101.345 249.758 101.345Z" fill="white"/>
<path d="M251.729 102.219C250.094 102.219 248.728 102.488 247.653 103.026C246.578 103.564 245.727 104.281 245.19 105.177C244.63 106.073 244.361 107.014 244.361 108.045C244.361 109.053 244.719 109.927 245.436 110.667C246.153 111.406 247.026 111.765 248.056 111.765C248.482 111.765 248.907 111.698 249.288 111.563C249.221 111.72 249.131 111.854 249.019 111.966C248.751 112.235 248.415 112.37 248.034 112.37H243.734H243.308H241.853H241.427H239.971H239.591C239.21 112.37 238.896 112.235 238.628 111.966C238.359 111.698 238.225 111.361 238.225 111.003V105.155C237.575 105.155 237.015 105.379 236.567 105.849C236.119 106.297 235.873 106.858 235.873 107.507V110.981C235.873 111.361 235.739 111.675 235.47 111.944C235.201 112.213 234.865 112.347 234.507 112.347H232.223H231.797H230.341H229.916H228.46H228.034H227.878C227.497 112.347 227.183 112.213 226.915 111.944C226.646 111.675 226.512 111.339 226.512 110.981V104.258C224.72 104.258 223.242 104.55 222.032 105.155C220.823 105.76 219.927 106.544 219.323 107.507C218.718 108.493 218.404 109.546 218.404 110.644C218.404 111.765 218.807 112.706 219.591 113.49C220.375 114.297 221.338 114.678 222.436 114.678H224.787C224.787 114.028 224.563 113.468 224.093 113.02C223.645 112.571 223.085 112.347 222.436 112.347C221.965 112.347 221.562 112.168 221.226 111.854C220.89 111.518 220.733 111.115 220.733 110.644C220.733 108.807 221.853 107.552 224.115 106.88V110.958C224.115 111.989 224.474 112.863 225.213 113.58C225.952 114.319 226.825 114.678 227.855 114.678H228.012H228.438H229.893H230.319H231.775H232.2H234.484C235.47 114.678 236.321 114.342 237.015 113.669C237.71 114.319 238.561 114.655 239.524 114.678H239.568H239.949H241.405H241.83H243.286H243.712H248.012C249.042 114.678 249.915 114.319 250.654 113.58C251.371 112.863 251.729 111.989 251.729 110.958V102.219ZM249.378 108.068C249.378 108.448 249.243 108.762 248.975 109.031C248.706 109.3 248.392 109.434 248.012 109.434C247.631 109.434 247.317 109.3 247.049 109.031C246.78 108.762 246.645 108.448 246.645 108.068C246.645 107.418 246.869 106.79 247.362 106.141C247.832 105.513 248.504 105.087 249.355 104.886V108.068H249.378Z" fill="white"/>
<path d="M255.38 107.507V112.37C255.38 114.006 254.574 115.216 252.983 116C251.796 116.605 251.192 117.456 251.192 118.621V118.644C253.028 118.666 254.574 118.061 255.85 116.851C257.104 115.641 257.731 114.14 257.731 112.37V105.177C257.082 105.177 256.522 105.401 256.074 105.872C255.604 106.32 255.38 106.88 255.38 107.507Z" fill="white"/>
<path d="M277.104 101.256V111.025C277.104 111.406 276.969 111.72 276.701 111.989C276.432 112.258 276.096 112.392 275.715 112.392H274.775H274.349H272.893H272.468H271.012H270.587H270.564C270.161 112.392 269.848 112.258 269.579 111.989C269.31 111.72 269.176 111.406 269.176 111.003C269.176 109.972 268.907 109.009 268.347 108.135C267.787 107.261 266.958 106.544 265.861 106.006C264.764 105.446 263.398 105.177 261.785 105.177V105.894C261.785 106.297 261.919 106.678 262.188 107.014C262.457 107.35 262.793 107.575 263.241 107.664L264.137 107.866C265.01 108.068 265.682 108.471 266.152 109.098C266.623 109.703 266.846 110.353 266.846 111.048C266.824 111.429 266.69 111.72 266.443 111.989C266.197 112.258 265.883 112.392 265.503 112.392H261.83C261.18 112.392 260.62 112.616 260.173 113.087C259.725 113.557 259.478 114.095 259.478 114.745H265.48C266.421 114.745 267.227 114.431 267.921 113.804C268.593 114.431 269.4 114.745 270.34 114.745H270.564H270.99H272.445H272.871H274.327H274.752H275.693C276.723 114.745 277.596 114.386 278.336 113.647C279.052 112.93 279.411 112.056 279.411 111.025V98.9253C278.761 98.9253 278.201 99.1494 277.753 99.5975C277.328 100.046 277.104 100.606 277.104 101.256Z" fill="white"/>
<path d="M281.986 101.278V114.723C282.636 114.723 283.195 114.498 283.643 114.028C284.091 113.58 284.315 113.02 284.315 112.37V98.9253C283.666 98.9253 283.106 99.1494 282.658 99.5975C282.21 100.068 281.986 100.628 281.986 101.278Z" fill="white"/>
<path d="M297.193 103.048C297.574 103.048 297.909 102.914 298.178 102.645C298.447 102.376 298.581 102.04 298.581 101.681C298.581 101.323 298.447 100.987 298.178 100.718C297.909 100.449 297.574 100.314 297.193 100.314C296.812 100.314 296.499 100.449 296.23 100.718C295.961 100.987 295.827 101.323 295.827 101.681C295.827 102.04 295.961 102.376 296.23 102.645C296.476 102.914 296.812 103.048 297.193 103.048Z" fill="white"/>
<path d="M294.125 103.048C294.505 103.048 294.819 102.914 295.088 102.645C295.356 102.376 295.491 102.04 295.491 101.681C295.491 101.323 295.356 100.987 295.088 100.718C294.819 100.449 294.483 100.314 294.125 100.314C293.744 100.314 293.43 100.449 293.162 100.718C292.893 100.987 292.758 101.323 292.758 101.681C292.758 102.04 292.893 102.376 293.162 102.645C293.408 102.914 293.744 103.048 294.125 103.048Z" fill="white"/>
<path d="M292.154 107.53C291.549 108.516 291.236 109.569 291.236 110.667C291.236 111.787 291.639 112.728 292.423 113.513C293.206 114.319 294.169 114.7 295.267 114.7C296.387 114.7 297.327 114.297 298.133 113.513C298.917 112.728 299.32 111.765 299.32 110.667V104.281C297.529 104.281 296.051 104.572 294.841 105.177C293.632 105.782 292.758 106.566 292.154 107.53ZM296.969 110.689C296.969 111.16 296.812 111.563 296.476 111.899C296.14 112.235 295.737 112.392 295.267 112.392C294.796 112.392 294.393 112.213 294.057 111.899C293.721 111.563 293.565 111.16 293.565 110.689C293.565 108.852 294.685 107.597 296.946 106.925V110.689H296.969Z" fill="white"/>
<path d="M323.082 104.101C323.463 104.101 323.777 103.967 324.045 103.698C324.314 103.429 324.449 103.115 324.449 102.735C324.449 102.354 324.314 102.04 324.045 101.771C323.777 101.502 323.441 101.368 323.082 101.368C322.702 101.368 322.388 101.502 322.119 101.771C321.851 102.04 321.716 102.376 321.716 102.735C321.716 103.115 321.851 103.429 322.119 103.698C322.366 103.967 322.679 104.101 323.082 104.101Z" fill="white"/>
<path d="M337.953 101.256V111.025C337.953 111.406 337.819 111.72 337.55 111.989C337.281 112.258 336.945 112.392 336.565 112.392H335.624H335.199H333.743H333.317H331.862H331.436H329.98H329.555H327.965C328.525 111.765 328.883 110.958 329.04 109.972C329.152 108.874 328.838 107.888 328.077 106.97C327.315 106.073 326.195 105.491 324.673 105.222C321.403 104.908 318.962 106.051 317.349 108.695C317.282 108.941 317.551 109.457 318.155 110.263C318.693 111.003 319.387 111.698 320.171 112.392H316.364H315.938H314.482H314.057H312.601H312.176H312.153C311.75 112.392 311.437 112.258 311.168 111.989C310.899 111.72 310.765 111.406 310.765 111.003C310.765 109.972 310.496 109.009 309.936 108.135C309.376 107.261 308.548 106.544 307.45 106.006C306.353 105.446 304.987 105.177 303.374 105.177V105.894C303.374 106.297 303.508 106.678 303.777 107.014C304.046 107.35 304.382 107.575 304.83 107.664L305.726 107.866C306.599 108.068 307.271 108.471 307.741 109.098C308.212 109.703 308.436 110.353 308.436 111.048C308.413 111.429 308.279 111.72 308.032 111.989C307.786 112.258 307.473 112.392 307.092 112.392H303.419C302.769 112.392 302.21 112.616 301.762 113.087C301.314 113.557 301.067 114.095 301.067 114.745H307.069C308.01 114.745 308.816 114.431 309.511 113.804C310.182 114.431 310.989 114.745 311.929 114.745H312.153H312.579H314.034H314.46H315.916H316.341H322.164C322.97 114.745 323.665 114.633 324.269 114.454C325.076 114.655 325.77 114.745 326.397 114.745H329.51H329.936H331.391H331.817H333.273H333.698H335.154H335.579H336.52C337.55 114.745 338.424 114.386 339.163 113.647C339.879 112.93 340.238 112.056 340.238 111.025V98.9253C339.588 98.9253 339.028 99.1494 338.58 99.5975C338.177 100.046 337.953 100.606 337.953 101.256ZM326.711 109.681C326.554 110.488 326.106 111.048 325.389 111.339C324.673 111.653 324.045 111.765 323.486 111.698C323.396 111.698 323.15 111.585 322.791 111.384C322.433 111.182 321.94 110.801 321.358 110.263C320.843 109.77 320.417 109.3 320.104 108.897C321.201 107.843 322.567 107.395 324.202 107.53C324.247 107.53 324.292 107.53 324.359 107.53C325.188 107.687 325.815 107.955 326.195 108.381C326.576 108.785 326.755 109.233 326.711 109.681Z" fill="white"/>
<path d="M343.53 99.5975C343.082 100.046 342.836 100.606 342.836 101.256V114.7C343.485 114.7 344.045 114.476 344.493 114.005C344.941 113.557 345.165 112.997 345.165 112.347V98.9028C344.538 98.9252 344 99.1493 343.53 99.5975Z" fill="white"/>
<path d="M162.952 30.2244C162.012 32.2635 161.049 34.3698 160.018 36.3865C159.346 37.7085 158.585 39.1426 157.756 40.487C157.174 41.4505 156.48 42.302 155.741 43.1983L155.45 43.5568C154.576 44.61 153.165 45.932 151.777 46.3802C150.59 46.7835 149.604 46.2009 148.977 45.4391C149.403 45.0581 149.806 44.61 150.142 44.005C150.59 43.1759 150.836 42.2572 150.836 41.3609L151.194 34.437C151.194 31.3448 148.686 28.8576 145.618 28.8576H144.296C141.206 28.8576 138.72 31.3672 138.72 34.437V41.3609C138.72 42.8622 139.347 44.2515 140.467 45.327C140.243 45.5287 140.019 45.7304 139.817 45.932C139.549 46.1785 138.742 46.8955 137.219 45.9768C136.077 45.2598 135.137 44.1394 134.286 43.0415C132.718 40.98 131.464 38.6272 130.321 36.3865C129.291 34.3698 128.328 32.2635 127.388 30.2244L127.32 30.0676C125.663 26.4376 123.939 22.6955 121.766 19.2224C115.899 9.81128 109.74 5.66591 103.962 7.21202C97.3548 8.98221 92.2262 17.9452 88.6876 33.832C87.0079 41.4057 86.3808 47.9711 86.8064 53.9315C87.0975 57.9872 87.7918 61.3259 88.9564 64.1716C90.0762 66.9054 92.6965 68.1154 95.0256 69.1685C98.2954 70.6698 99.5048 71.4316 99.3032 73.7396C99.1689 75.2633 97.9147 76.8542 96.7053 78.4003C95.0032 80.5515 93.0772 82.9715 93.6595 85.9516C96.7277 101.726 108.396 118.263 122.64 118.622H122.976C127.074 118.622 131.128 116.717 134.442 113.289C136.391 111.272 137.242 109.457 138.227 107.351C138.384 107.015 138.541 106.656 138.72 106.298C138.72 106.544 138.72 106.768 138.72 107.015C138.72 107.44 138.72 107.889 138.698 108.337C138.675 109.524 138.653 110.779 138.787 111.967C139.078 114.566 141.564 116.672 144.296 116.672H145.618C148.708 116.672 151.194 114.163 151.194 111.07L151.15 105.894C151.284 106.208 151.418 106.499 151.553 106.768C152.829 109.457 154.218 111.518 155.92 113.289C159.212 116.717 163.288 118.622 167.387 118.622H167.723C181.966 118.263 193.657 101.726 196.703 85.9516C197.285 82.9715 195.359 80.5291 193.657 78.3779C192.448 76.8318 191.171 75.2409 191.059 73.7172C190.857 71.4092 192.089 70.625 195.337 69.1461C197.643 68.0929 200.286 66.8829 201.406 64.1492C202.57 61.3035 203.265 57.9648 203.556 53.9091C203.959 47.9487 203.354 41.3833 201.675 33.8096C198.136 17.9228 192.985 8.9598 186.401 7.18962C180.622 5.6435 174.464 9.78887 168.596 19.2C166.424 22.6955 164.699 26.4376 163.042 30.0452L162.952 30.2244ZM201.854 53.8194C201.585 57.6735 200.936 60.8554 199.838 63.5218C198.965 65.6281 196.859 66.5916 194.642 67.6224C191.776 68.9444 189.066 70.1768 189.379 73.8965C189.558 75.9355 190.969 77.7281 192.358 79.4535C193.97 81.4926 195.493 83.4196 195.068 85.6379C192.134 100.763 181.093 116.583 167.7 116.919H167.409C163.781 116.919 160.153 115.216 157.174 112.101C155.606 110.465 154.307 108.538 153.12 106.029C152.807 105.356 152.471 104.55 152.135 103.721C151.799 102.914 151.463 102.085 151.127 101.346L149.515 97.8724L149.492 103.878C149.515 104.079 149.492 104.191 149.492 104.326C149.492 104.46 149.47 104.617 149.47 104.864L149.537 111.07C149.537 113.221 147.79 114.969 145.64 114.969H144.319C142.438 114.969 140.691 113.513 140.489 111.765C140.355 110.667 140.377 109.479 140.4 108.359C140.4 107.911 140.422 107.463 140.422 107.015C140.422 105.894 140.422 104.774 140.422 103.653L140.444 97.7604L137.981 103.922C137.466 104.908 137.04 105.805 136.637 106.634C135.674 108.673 134.913 110.286 133.166 112.101C130.187 115.193 126.559 116.919 122.931 116.919H122.64C109.247 116.583 98.2058 100.741 95.272 85.6379C94.8465 83.4196 96.3694 81.4926 97.9819 79.4535C99.348 77.7057 100.781 75.9131 100.938 73.8965C101.252 70.1768 98.5418 68.9444 95.6751 67.6224C93.4579 66.6141 91.3527 65.6505 90.4793 63.5218C89.3819 60.8554 88.7324 57.6735 88.4637 53.8194C88.0605 48.0159 88.6652 41.6074 90.3225 34.1905C93.7043 18.9535 98.4522 10.4387 104.387 8.84776C109.381 7.50332 114.868 11.4022 120.311 20.1187C122.416 23.5246 124.118 27.1994 125.753 30.7846L125.82 30.9415C126.761 33.0029 127.746 35.1092 128.776 37.1707C129.963 39.4787 131.262 41.9211 132.919 44.0722C133.86 45.3046 134.935 46.5594 136.301 47.4109C137.958 48.4416 139.638 48.352 140.915 47.1868C141.385 46.7611 141.855 46.3129 142.303 45.8648L143.042 45.1478L142.191 44.5652C141.363 44.005 140.377 42.9742 140.377 41.3609V34.4594C140.377 32.3083 142.124 30.5605 144.274 30.5605H145.595C147.745 30.5605 149.492 32.3083 149.492 34.4146C149.134 41.3161 149.134 41.3161 149.134 41.3385C149.134 41.9883 148.977 42.6381 148.664 43.1983C148.373 43.7137 147.947 44.0946 147.454 44.5204L146.805 45.1029L147.141 45.7079C148.081 47.4109 150.052 48.7778 152.359 47.9935C154.531 47.2541 156.301 45.2374 156.793 44.6324L157.084 44.2963C157.868 43.3552 158.585 42.4589 159.234 41.3833C160.086 39.9941 160.847 38.5376 161.541 37.1707C162.594 35.1317 163.557 33.0029 164.498 30.9415L164.565 30.7846C166.2 27.2218 167.902 23.5246 170.007 20.1187C175.427 11.4022 180.936 7.50332 185.93 8.84776C191.865 10.4387 196.613 18.9759 199.995 34.1905C201.63 41.6074 202.234 48.0159 201.854 53.8194Z" fill="#FDCF0A"/>
<path d="M167.364 118.756C163.243 118.756 159.145 116.851 155.808 113.378C154.106 111.608 152.717 109.524 151.418 106.835C151.374 106.723 151.306 106.589 151.239 106.477L151.284 111.093C151.284 114.252 148.731 116.807 145.573 116.807H144.252C141.452 116.807 138.921 114.655 138.63 112.011C138.496 110.801 138.518 109.547 138.541 108.359C138.541 107.911 138.563 107.485 138.563 107.059V106.858C138.474 107.015 138.406 107.194 138.339 107.351L138.294 107.463C137.309 109.569 136.436 111.384 134.487 113.423C131.173 116.874 127.074 118.801 122.931 118.801H122.595C108.284 118.442 96.5709 101.861 93.5027 86.0412C92.9204 83.0162 94.8465 80.5514 96.5709 78.4003C97.7803 76.8766 99.0345 75.2857 99.1465 73.8068C99.3256 71.566 98.1387 70.8042 94.936 69.3477C92.6069 68.2722 89.9642 67.0846 88.822 64.2836C87.6574 61.4379 86.9407 58.0768 86.672 53.9986C86.2689 48.0383 86.8736 41.4505 88.5756 33.8544C92.1366 17.9227 97.2876 8.93733 103.939 7.14474C109.784 5.57622 115.966 9.744 121.856 19.1999C124.028 22.6955 125.753 26.4375 127.41 30.0675L127.477 30.2244C128.351 32.1514 129.358 34.3473 130.411 36.364C131.553 38.6047 132.807 40.9575 134.375 42.9966C135.204 44.0946 136.144 45.2149 137.264 45.9096C138.698 46.8059 139.459 46.1112 139.705 45.8871C139.907 45.7079 140.086 45.5286 140.265 45.3718C139.145 44.2738 138.563 42.9294 138.563 41.4281V34.4594C138.563 31.3223 141.116 28.7455 144.274 28.7455H145.595C148.731 28.7455 151.306 31.2999 151.306 34.4594L150.948 41.3833C150.948 42.302 150.702 43.2431 150.254 44.0721C149.918 44.6771 149.515 45.1029 149.156 45.439C149.559 45.8871 150.478 46.6938 151.777 46.2681C153.143 45.7975 154.531 44.5203 155.382 43.4672L155.674 43.1086C156.413 42.2123 157.107 41.3609 157.689 40.4197C158.518 39.0753 159.257 37.6636 159.929 36.3192C160.981 34.2801 161.967 32.1066 162.863 30.1796L162.93 30.0227C164.587 26.3927 166.312 22.6507 168.484 19.1551C174.374 9.69919 180.578 5.5314 186.401 7.09992C193.052 8.89252 198.226 17.8779 201.764 33.8096C203.444 41.3833 204.071 47.971 203.668 53.9538C203.377 58.0096 202.682 61.3707 201.518 64.2164C200.376 66.9949 197.733 68.2049 195.404 69.2805C192.201 70.737 190.992 71.5212 191.193 73.7396C191.328 75.2184 192.559 76.8094 193.769 78.3331C195.493 80.5066 197.419 82.949 196.837 85.9964C193.769 101.816 182.033 118.398 167.745 118.756H167.364ZM151.015 105.312L151.239 105.849C151.374 106.163 151.508 106.454 151.642 106.723C152.919 109.39 154.307 111.451 155.987 113.221C159.257 116.627 163.311 118.51 167.364 118.51H167.7C181.877 118.151 193.523 101.659 196.568 85.9292C197.128 82.9938 195.225 80.5962 193.545 78.4675C192.313 76.9214 191.037 75.3081 190.902 73.7396C190.701 71.3644 191.932 70.5577 195.247 69.034C197.531 67.9809 200.152 66.7933 201.249 64.1044C202.414 61.281 203.108 57.9423 203.377 53.909C203.78 47.971 203.175 41.4057 201.495 33.832C197.957 17.9899 192.851 9.04937 186.289 7.30159C180.555 5.75548 174.441 9.90085 168.618 19.2671C166.446 22.7403 164.744 26.4823 163.087 30.1123L163.019 30.2916C162.146 32.2186 161.138 34.4146 160.086 36.4536C159.391 37.7981 158.652 39.2097 157.824 40.5766C157.241 41.5401 156.525 42.3916 155.786 43.2879L155.494 43.6464C154.621 44.722 153.188 46.044 151.777 46.5146C150.276 47.0299 149.224 45.9992 148.843 45.5286L148.776 45.439L148.865 45.3718C149.246 45.0357 149.671 44.5875 150.007 43.9825C150.433 43.1983 150.679 42.2796 150.679 41.4057L151.038 34.4818C151.038 31.4792 148.574 29.0144 145.573 29.0144H144.252C141.228 29.0144 138.787 31.4792 138.787 34.4818V41.4057C138.787 42.8846 139.392 44.229 140.512 45.2821L140.601 45.3718L140.512 45.4614C140.288 45.6631 140.064 45.8647 139.84 46.0664C139.549 46.3129 138.698 47.0971 137.107 46.1112C135.943 45.3942 135.002 44.2514 134.151 43.1534C132.583 41.092 131.329 38.7392 130.165 36.476C129.112 34.437 128.127 32.241 127.231 30.314L127.164 30.1571C125.506 26.5496 123.782 22.8075 121.632 19.312C115.809 9.94566 109.695 5.8227 103.962 7.34641C97.3996 9.11659 92.2933 18.0347 88.7548 33.8768C87.0751 41.4281 86.448 48.0159 86.8735 53.9538C87.1423 57.9871 87.859 61.3259 89.0236 64.1492C90.1433 66.8381 92.7413 68.0257 95.0256 69.0788C98.3402 70.6025 99.572 71.3868 99.3704 73.7844C99.2361 75.3305 97.9595 76.9438 96.7277 78.5123C95.048 80.641 93.1444 83.0386 93.7043 85.974C96.7501 101.704 108.396 118.196 122.573 118.554H122.908C126.962 118.554 131.016 116.672 134.286 113.266C136.212 111.25 137.063 109.457 138.048 107.373L138.093 107.261C138.227 106.947 138.384 106.634 138.541 106.32L138.765 105.872V107.082C138.765 107.508 138.765 107.956 138.742 108.381C138.72 109.569 138.698 110.801 138.832 112.011C139.123 114.543 141.542 116.605 144.229 116.605H145.551C148.574 116.605 151.015 114.14 151.015 111.115V105.312ZM167.364 117.053C163.714 117.053 160.041 115.328 157.04 112.213C155.472 110.577 154.173 108.628 152.964 106.118C152.65 105.446 152.314 104.662 151.978 103.81V103.788C151.642 102.981 151.306 102.152 150.97 101.413L149.582 98.4101L149.559 103.9C149.582 104.102 149.559 104.214 149.559 104.348C149.537 104.505 149.537 104.662 149.537 104.886L149.604 111.093C149.604 113.311 147.813 115.104 145.595 115.104H144.274C142.348 115.104 140.534 113.602 140.332 111.81C140.198 110.712 140.22 109.524 140.243 108.381C140.243 107.933 140.265 107.485 140.265 107.037C140.265 105.917 140.265 104.796 140.265 103.676L140.288 98.4101L138.07 103.99C137.533 104.998 137.107 105.894 136.727 106.701C135.764 108.762 135.002 110.376 133.233 112.213C130.232 115.328 126.559 117.053 122.908 117.053H122.617C109.157 116.717 98.0939 100.83 95.1376 85.6827C94.6897 83.4195 96.235 81.4701 97.8699 79.4086C99.2361 77.6833 100.647 75.9131 100.804 73.8964C101.117 70.2664 98.4298 69.034 95.6079 67.7344C93.3683 66.7036 91.2407 65.7401 90.3449 63.589C89.2475 60.9001 88.5756 57.7183 88.3069 53.8418C87.9038 48.0383 88.5084 41.6073 90.1657 34.1905C93.5699 18.9086 98.3178 10.349 104.32 8.75807C109.359 7.41363 114.913 11.3125 120.355 20.0738C122.483 23.4797 124.163 27.177 125.798 30.7397L125.865 30.8966C126.805 32.9357 127.768 35.0644 128.821 37.1034C130.008 39.4114 131.307 41.8314 132.942 43.9825C133.882 45.2149 134.935 46.4697 136.301 47.2988C137.914 48.2847 139.549 48.2175 140.78 47.0971C141.251 46.6714 141.721 46.2233 142.169 45.7751L142.796 45.1477L142.057 44.6547C141.206 44.0721 140.198 43.019 140.198 41.3609V34.4594C140.198 32.241 141.99 30.4484 144.207 30.4484H145.528C147.745 30.4484 149.537 32.2186 149.537 34.4146C149.201 41.0471 149.179 41.316 149.179 41.3384C149.179 42.0107 149 42.6829 148.686 43.2655C148.395 43.8033 147.947 44.1842 147.454 44.6323L146.872 45.1477L147.163 45.6631C148.081 47.3212 150.007 48.6433 152.247 47.9038C154.375 47.1868 156.144 45.1701 156.637 44.5651L156.928 44.2066C157.689 43.2655 158.428 42.3916 159.055 41.3384C159.906 39.9268 160.668 38.4927 161.362 37.1259C162.415 35.0868 163.378 32.9581 164.318 30.919L164.386 30.7621C166.02 27.1994 167.723 23.5021 169.828 20.0962C175.292 11.3349 180.824 7.41363 185.863 8.78048C191.843 10.3938 196.613 18.9534 200.017 34.2129C201.675 41.6297 202.279 48.0607 201.876 53.8642C201.607 57.7407 200.936 60.9225 199.838 63.6114C198.942 65.7625 196.837 66.7484 194.575 67.7568C191.753 69.0564 189.066 70.2664 189.379 73.9188C189.558 75.9131 190.969 77.7057 192.313 79.431C193.948 81.4925 195.471 83.442 195.045 85.7051C192.112 100.875 181.026 116.739 167.566 117.098L167.364 117.053ZM149.358 97.3345L151.194 101.278C151.53 102.018 151.866 102.847 152.202 103.676V103.698C152.538 104.527 152.852 105.334 153.165 105.984C154.375 108.493 155.651 110.398 157.196 112.034C160.153 115.104 163.758 116.807 167.342 116.807H167.633C180.958 116.47 191.955 100.673 194.889 85.6155C195.314 83.442 193.791 81.5373 192.201 79.5207C190.813 77.7729 189.379 75.9579 189.2 73.8964C188.887 70.0872 191.619 68.8323 194.53 67.5103C196.725 66.502 198.808 65.5609 199.659 63.477C200.756 60.8105 201.406 57.651 201.675 53.797C202.078 48.0159 201.473 41.6073 199.816 34.2129C196.434 19.0431 191.731 10.5283 185.841 8.95974C180.914 7.6377 175.449 11.5142 170.052 20.1634C167.946 23.5694 166.244 27.2442 164.609 30.807L164.542 30.9638C163.602 33.0253 162.639 35.1316 161.586 37.1931C160.892 38.5599 160.13 39.994 159.279 41.4057C158.63 42.4812 157.891 43.3551 157.129 44.2962L156.838 44.6547C156.345 45.2597 154.531 47.3212 152.337 48.0607C149.963 48.8673 147.947 47.4557 146.984 45.7303L146.603 45.0581L147.342 44.4083C147.835 43.9825 148.261 43.624 148.529 43.1086C148.843 42.5484 149 41.921 149 41.2936C149 41.2712 149 41.2712 149.358 34.3697C149.358 32.3307 147.656 30.6501 145.595 30.6501H144.274C142.191 30.6501 140.512 32.3531 140.512 34.4146V41.3384C140.512 42.907 141.475 43.8929 142.281 44.4307L143.244 45.1029L142.415 45.932C141.945 46.3801 141.475 46.8283 141.004 47.254C139.683 48.464 137.936 48.5312 136.234 47.4781C134.845 46.6042 133.77 45.3494 132.807 44.0946C131.15 41.921 129.851 39.4786 128.664 37.1707C127.612 35.1092 126.649 33.0029 125.708 30.9414L125.641 30.7846C124.006 27.2218 122.326 23.5246 120.199 20.141C114.801 11.4918 109.359 7.6153 104.409 8.93733C98.5194 10.5283 93.8163 19.0207 90.4345 34.1905C88.7996 41.5849 88.1949 47.9934 88.5756 53.7746C88.8444 57.6286 89.4939 60.7881 90.5913 63.4546C91.4423 65.516 93.5251 66.4796 95.7199 67.4879C98.6314 68.8099 101.386 70.0647 101.05 73.874C100.871 75.9355 99.4376 77.7505 98.0491 79.4983C96.459 81.5149 94.936 83.4196 95.3616 85.5931C98.3178 100.673 109.314 116.47 122.64 116.807H122.931C126.514 116.807 130.12 115.104 133.076 112.034C134.801 110.219 135.562 108.628 136.525 106.589C136.906 105.782 137.331 104.863 137.869 103.878L140.534 97.1553L140.512 103.653C140.512 104.774 140.489 105.894 140.512 107.015C140.512 107.463 140.512 107.911 140.489 108.359C140.467 109.502 140.444 110.667 140.579 111.765C140.78 113.445 142.46 114.857 144.296 114.857H145.618C147.701 114.857 149.38 113.154 149.38 111.093L149.313 104.886C149.313 104.639 149.313 104.505 149.336 104.348C149.336 104.214 149.358 104.102 149.336 103.9L149.358 97.3345Z" fill="#FDCF0A"/>
<path d="M145.573 96.3933H144.296C141.34 96.3933 138.921 93.9957 138.921 91.0155V84.3829C138.921 81.4251 141.318 79.0051 144.296 79.0051H145.573C148.529 79.0051 150.948 81.4027 150.948 84.3829V91.0155C150.948 93.9957 148.529 96.3933 145.573 96.3933ZM144.296 80.6633C142.236 80.6633 140.556 82.3438 140.556 84.4053V91.0379C140.556 93.0994 142.236 94.7799 144.296 94.7799H145.573C147.633 94.7799 149.313 93.0994 149.313 91.0379V84.4053C149.313 82.3438 147.633 80.6633 145.573 80.6633H144.296Z" fill="#FDCF0A"/>
<path d="M145.573 74.0756H144.296C141.34 74.0756 138.921 71.6781 138.921 68.6979V62.0653C138.921 59.1075 141.318 56.6875 144.296 56.6875H145.573C148.529 56.6875 150.948 59.0851 150.948 62.0653V68.6979C150.948 71.6781 148.529 74.0756 145.573 74.0756ZM144.296 58.3456C142.236 58.3456 140.556 60.0262 140.556 62.0877V68.7203C140.556 70.7818 142.236 72.4623 144.296 72.4623H145.573C147.633 72.4623 149.313 70.7818 149.313 68.7203V62.0877C149.313 60.0262 147.633 58.3456 145.573 58.3456H144.296Z" fill="#FDCF0A"/>
<path d="M145.752 45.2148H144.117V63.2752H145.752V45.2148Z" fill="#FDCF0A"/>
<path d="M145.752 67.8911H144.117V85.9515H145.752V67.8911Z" fill="#FDCF0A"/>
<path d="M145.752 90.5674H144.117V108.628H145.752V90.5674Z" fill="#FDCF0A"/>
</svg>
