<svg width="321" height="176" viewBox="0 0 321 176" fill="none" xmlns="http://www.w3.org/2000/svg">
<path d="M76.6842 81.9689C70.3435 93.6921 63.973 105.415 57.6025 117.138C45.5461 117.34 33.46 117.541 21.4037 117.743C39.8305 105.818 58.2574 93.8934 76.6842 81.9689Z" fill="#CA7C38"/>
<path d="M75.0173 83.1099C80.3161 85.9959 85.6149 88.9044 90.884 91.7904C79.81 100.135 68.7063 108.794 57.6025 117.138C63.4074 105.907 69.2123 94.3409 75.0173 83.1099Z" fill="#C07837"/>
<path d="M90.9137 91.7904L98.0284 105.303C94.1882 109.196 90.3183 113.089 86.4781 116.982C87.9368 108.57 89.4253 100.18 90.9137 91.7904Z" fill="#C06C34"/>
<path d="M75.0172 83.1099C83.5608 79.1052 92.5808 75.3466 101.124 71.3419C97.9987 78.4116 94.3967 85.2353 91.2709 92.305C85.853 89.2399 80.4351 86.1749 75.0172 83.1099Z" fill="#CD803A"/>
<g opacity="0.74">
<mask id="mask0_31_1805" style="mask-type:luminance" maskUnits="userSpaceOnUse" x="228" y="60" width="17" height="11">
<path d="M244.401 60.9164H228.237V70.0891H244.401V60.9164Z" fill="white"/>
</mask>
<g mask="url(#mask0_31_1805)">
<path d="M242.466 60.9164C243.121 61.8784 243.746 62.8628 244.401 63.8248C239.46 65.9054 234.518 67.9861 229.577 70.0891C229.13 68.8586 228.683 67.6505 228.237 66.42C233 64.5854 237.733 62.7509 242.466 60.9164Z" fill="#DD9E65"/>
</g>
</g>
<path d="M103.119 61.9007C102.464 65.0776 101.779 68.2322 101.124 71.409C92.2533 75.4137 83.3524 79.4184 74.4813 83.4231C84.0371 76.2639 93.5631 69.0823 103.119 61.9007Z" fill="#D28F45"/>
<path d="M99.9932 71.9236C97.1949 78.4788 94.3966 85.2129 91.5686 91.768C99.8145 89.0386 108.09 86.3315 116.336 83.602C110.948 79.7764 106.453 75.3913 101.065 71.5656L100.946 71.4762L99.9932 71.9236Z" fill="#C87331"/>
<path d="M118.093 93.8039C111.156 97.8757 104.25 101.925 97.314 105.997C95.1706 101.254 93.057 96.511 90.9137 91.768C99.9634 92.4616 109.043 93.1328 118.093 93.8039Z" fill="#C47338"/>
<path d="M99.1299 104.297C100.827 108.525 102.523 112.753 104.25 116.982H86.4781C90.7351 112.619 94.6348 108.525 99.1299 104.297Z" fill="#E6B281"/>
<path d="M117.319 50.5579C119.462 54.4507 121.605 58.3659 123.719 62.2587C116.634 62.3035 109.519 62.3482 102.434 62.4153C107.406 58.4554 112.377 54.5178 117.319 50.5579Z" fill="#DE934C"/>
<path d="M131.102 42.0563L137.77 49.2379C132.888 53.4663 128.006 57.6947 123.124 61.9231C121.04 58.2764 118.986 54.6297 116.902 50.983L131.102 42.0563Z" fill="#EAA45F"/>
<path d="M148.427 36.5527C144.646 40.714 140.866 44.8976 137.115 49.0589C135.12 46.7322 133.126 44.3831 131.131 42.0563C136.877 40.2218 142.652 38.3872 148.427 36.5527Z" fill="#EEBA7C"/>
<path d="M170.188 30.6911C168.015 33.4206 165.812 36.1724 163.639 38.9018C158.28 38.2083 152.892 37.5147 147.534 36.8212C155.065 34.7853 162.627 32.7494 170.188 30.6911Z" fill="#F4BD82"/>
<path d="M114.878 84.0943L139.764 92.305L161.525 87.1145L150.63 72.7514L114.878 84.0943Z" fill="#A65826"/>
<path d="M187.722 73.7582L181.5 83.4455C171.2 79.8882 160.93 76.331 150.63 72.7738C163.014 73.087 175.368 73.4226 187.722 73.7582Z" fill="#AB5C24"/>
<path d="M150.868 72.7514C159.144 69.485 167.39 66.2186 175.665 62.9523C179.684 66.5542 183.703 70.1562 187.722 73.7582C175.427 73.4226 163.162 73.087 150.868 72.7514Z" fill="#CB7A3C"/>
<path d="M234.667 48.2535C236.185 49.3498 237.733 50.4684 239.251 51.5646C234.726 55.3456 230.202 59.1265 225.707 62.9299C228.683 58.0303 231.66 53.1307 234.667 48.2535Z" fill="#DA8545"/>
<path d="M164.859 54.8981C168.491 58.075 172.123 61.2296 175.725 64.4065C167.032 67.5162 158.34 70.626 149.647 73.7582L164.859 54.8981Z" fill="#DE9251"/>
<path d="M163.073 54.406C149.737 56.9117 136.43 59.4174 123.094 61.9231C123.302 62.035 123.511 62.1692 123.719 62.2811C132.352 66.1068 140.985 69.9548 149.618 73.7805L164.83 54.9205C164.264 54.7415 163.669 54.5626 163.073 54.406Z" fill="#DE8A4B"/>
<path d="M174.385 63.5787C179.654 60.8045 184.894 58.0079 190.163 55.2337C196.533 59.5069 202.904 63.8024 209.244 68.0756C197.635 66.5766 186.025 65.0776 174.385 63.5787Z" fill="#DF8D4E"/>
<path d="M177.273 46.8888L163.073 54.406C172.867 55.1219 182.661 55.8154 192.425 56.5314C187.394 53.3097 182.333 50.1104 177.273 46.8888Z" fill="#F7C78B"/>
<path d="M175.963 49.305C178.493 46.6651 180.994 44.0251 183.524 41.3852C188.347 42.3248 193.14 43.2868 197.962 44.2265C190.609 45.9268 183.286 47.6047 175.963 49.305Z" fill="#F9CA93"/>
<path d="M138.335 48.6562C133.275 53.0636 128.184 57.4934 123.124 61.9007C136.936 59.3503 150.719 56.7774 164.532 54.227L138.335 48.6562Z" fill="#F2B06F"/>
<path d="M162.865 38.7228C154.5 42.1234 146.135 45.5017 137.77 48.9023C146.432 50.6921 155.095 52.4595 163.758 54.2493C168.134 51.8555 172.48 49.4616 176.856 47.0678C172.182 44.2712 167.509 41.497 162.865 38.7228Z" fill="#FACF9E"/>
<path d="M178.612 34.4497L177.064 48.0522C179.059 45.9939 181.053 43.9356 183.048 41.8773C181.589 39.4164 180.101 36.933 178.612 34.4497Z" fill="#FBD3A3"/>
<path d="M170.188 30.6911C172.986 31.944 175.903 33.2416 178.702 34.4944L162.835 38.7005C165.306 36.0381 167.747 33.3758 170.188 30.6911Z" fill="#FAD2A1"/>
<path d="M203.499 49.0589C209.721 49.9986 215.942 50.9606 222.164 51.9002C217.937 57.6276 213.68 63.355 209.453 69.0823C202.666 64.4512 195.878 59.7977 189.091 55.1666C193.854 53.1307 198.677 51.0948 203.499 49.0589Z" fill="#E79855"/>
<path d="M187.156 73.8477C194.301 71.767 201.445 69.6864 208.59 67.5834C209.125 70.2009 209.632 72.8185 210.167 75.4585C202.517 74.9215 194.836 74.3846 187.156 73.8477Z" fill="#BC662C"/>
<path d="M222.134 51.3857C223.682 54.6744 225.23 57.9408 226.808 61.2296C220.824 63.6682 214.811 66.1291 208.828 68.5677C213.263 62.8628 217.699 57.1354 222.134 51.3857Z" fill="#E79855"/>
<path d="M225.915 44.7187C228.594 46.24 231.303 47.7613 233.982 49.2827L239.966 45.2332C235.292 45.0766 230.618 44.8976 225.915 44.7187Z" fill="#F6C995"/>
<path d="M225.915 44.7187C227.136 45.2556 228.416 45.9044 229.725 46.6203C231.333 47.5152 232.762 48.4101 233.982 49.2603C230.112 50.1776 226.242 51.1172 222.343 52.0345C219.306 49.8643 216.27 47.6942 213.234 45.5241C217.49 45.278 221.688 45.0095 225.915 44.7187Z" fill="#F4B471"/>
<path d="M219.485 70.9169C216.3 72.304 213.114 73.691 209.929 75.0781C209.572 72.908 209.185 70.7379 208.828 68.5677C214.752 66.062 220.676 63.5563 226.6 61.0506C224.218 64.3617 221.837 67.6281 219.485 70.9169Z" fill="#C67133"/>
<path d="M208.56 75.3466C209.84 76.5771 211.537 77.6286 212.817 78.8591C219.038 76.0849 224.843 73.4897 231.065 70.7155C230.737 69.4626 230.41 68.2098 230.053 66.9569C226.153 68.3888 222.253 69.8206 218.354 71.2524C215.079 72.6172 211.834 73.9819 208.56 75.3466Z" fill="#DA9A62"/>
<path d="M273.545 51.0725C274.378 53.6677 275.182 56.2629 276.016 58.8805C279.975 53.5111 283.934 48.1193 287.893 42.7499C283.101 45.5241 278.308 48.2983 273.545 51.0725Z" fill="#E08445"/>
<path d="M228.654 68.2098L254.225 58.6344C252.111 60.6703 249.998 62.7062 247.884 64.7421C244.193 66.42 240.502 68.0979 236.781 69.7759L229.457 70.7603C229.19 69.9101 228.922 69.0599 228.654 68.2098Z" fill="#C0753C"/>
<path d="M248.122 64.5854L249.015 66.7556C250.206 67.6505 251.397 68.5454 252.558 69.4179C249.492 69.664 246.068 70.0667 242.347 70.7603C237.316 71.6999 233 72.908 229.457 74.0938C232.196 72.4829 234.935 70.8721 237.674 69.2613L248.122 64.5854Z" fill="#8A471F"/>
<path d="M270.33 56.3971C269.318 59.4621 268.276 62.5048 267.264 65.5698L252.588 69.4179C251.099 68.6349 249.581 67.8518 248.093 67.0912L270.33 56.3971Z" fill="#B1551F"/>
<path d="M263.632 61.0058L263.781 59.6187C267.889 59.6635 271.997 59.6859 276.075 59.7306C276.73 60.4465 277.415 61.1848 278.07 61.9007C277.028 62.5048 275.986 63.1312 274.974 63.7353C272.384 64.3393 269.824 64.9658 267.234 65.5698C266.043 64.0485 264.852 62.5272 263.632 61.0058Z" fill="#C16B31"/>
<path d="M272.89 9.57146C269.645 11.1152 266.4 12.6589 263.156 14.2026C262.114 14.1131 261.102 14.046 260.089 13.9565C260.357 11.9653 260.655 9.97417 260.923 8.00539C264.882 8.51995 268.871 9.03452 272.89 9.57146Z" fill="#D96833"/>
<path d="M262.233 25.2098C260.625 26.6641 259.018 28.1406 257.41 29.5949C259.018 31.407 260.625 33.2192 262.233 35.0314V25.2098Z" fill="#FBD8A2"/>
<path d="M247.408 52.1911C248.748 54.6297 250.236 57.3591 251.576 59.7977C248.093 61.2072 244.461 62.214 240.978 63.601C243.121 59.7753 245.235 56.0168 247.408 52.1911Z" fill="#E49F62"/>
<path d="M292.746 13.0168C295.127 14.8961 297.509 16.7754 299.89 18.6547C298.58 21.1604 297.3 23.6438 295.991 26.1495C293.788 23.2858 291.615 20.3998 289.412 17.5361C290.543 16.0147 291.644 14.5158 292.746 13.0168Z" fill="#DC652F"/>
<path d="M296.318 25.702C294.74 28.946 293.133 32.1901 291.555 35.4341C288.667 33.689 285.78 31.9216 282.892 30.1765C285.065 25.9705 287.268 21.7421 289.441 17.5361C291.704 20.2431 294.026 22.9726 296.318 25.702Z" fill="#D3632F"/>
<path d="M291.198 33.7114C294.443 33.0178 297.687 32.3243 300.902 31.6307L296.169 42.4367C292.656 43.3763 289.144 44.2936 285.631 45.2332C287.506 41.3852 289.352 37.5371 291.198 33.7114Z" fill="#F3AB62"/>
<path d="M284.976 45.2109C289.084 43.8238 293.222 42.4367 297.33 41.0272C294.472 44.8081 291.615 48.5891 288.757 52.3701C285.661 52.9741 282.535 53.6005 279.439 54.2046L284.976 45.2109Z" fill="#F7C68D"/>
<path d="M234.191 49.2379C230.321 50.1552 226.242 51.1396 222.372 52.0792C223.861 55.0771 225.32 58.254 226.808 61.2519L234.191 49.2379Z" fill="#DF904C"/>
<path d="M279.439 54.227L288.757 52.3924C285.214 55.5693 281.642 58.7238 278.1 61.9007C277.415 61.2072 276.76 60.5136 276.075 59.8425L274.468 58.433L279.439 54.227Z" fill="#F9D0A3"/>
<path d="M281.88 31.3623L290.543 34.2036C287.596 35.3669 284.619 36.5303 281.672 37.7161L276.998 35.5459C278.606 34.1588 280.243 32.7494 281.88 31.3623Z" fill="#D26A2B"/>
<path d="M274.319 51.5647C274.914 53.7348 275.48 55.972 275.986 58.2764C276.135 59.0147 276.284 59.7306 276.432 60.4465C272.205 60.1781 268.008 59.9096 263.781 59.6188C267.293 56.9341 270.806 54.2494 274.319 51.5647Z" fill="#CC6C31"/>
<path d="M281.434 37.5371C285.036 35.9934 288.608 34.4497 292.21 32.906C290.037 37.0001 287.834 41.1167 285.661 45.2109C281.196 47.7837 276.7 50.3565 272.235 52.9294L281.434 37.5371Z" fill="#DB7638"/>
<path d="M276.998 35.5459C276.194 40.5574 275.361 45.5688 274.557 50.5579C276.939 46.2847 279.082 41.8326 281.434 37.5371L276.998 35.5459Z" fill="#C96325"/>
<path d="M272.533 39.8862C268.961 46.9783 265.388 54.048 261.816 61.1401C266.341 57.7395 270.836 54.3388 275.361 50.9382C275.897 45.8149 276.432 40.6692 276.968 35.5459C275.51 36.9778 274.021 38.432 272.533 39.8862Z" fill="#BC5922"/>
<path d="M240.65 55.3232C239.162 58.5449 237.644 61.7441 236.155 64.9658C238.686 63.7577 241.216 62.5495 243.746 61.3414C242.705 59.3279 241.692 57.3144 240.65 55.3232Z" fill="#DE9F65"/>
<path d="M241.246 54.1822C237.048 58.9028 232.851 63.601 228.683 68.3216L236.513 64.8092C238.061 61.2743 239.668 57.7171 241.246 54.1822Z" fill="#CE9156"/>
<path d="M239.341 50.0433C239.787 51.8107 240.204 53.5558 240.651 55.3232C236.334 57.1801 232.047 59.0371 227.731 60.894L239.341 50.0433Z" fill="#D88040"/>
<path d="M240.234 44.2936L239.906 53.4216C237.942 52.0345 235.977 50.6474 233.982 49.2603C236.066 47.6271 238.15 45.9715 240.234 44.2936Z" fill="#D8813D"/>
<path d="M240.65 55.3232C236.661 59.6187 232.643 64.0261 228.654 68.3216L227.046 61.0506C227.969 60.6702 240.65 55.3232 240.65 55.3232Z" fill="#CE7737"/>
<path d="M242.675 61.677C245.711 60.7374 248.777 59.7977 251.814 58.8581C250.831 61.1177 249.879 63.3997 248.896 65.6593C246.842 64.3393 244.759 63.0194 242.675 61.677Z" fill="#E49F62"/>
<path d="M226.57 61.073C226.332 61.4085 219.366 70.8497 219.366 70.8497C222.462 70.022 225.766 69.0823 228.862 68.2545L227.046 61.0282L226.57 61.073Z" fill="#BE6B2E"/>
<path d="M248.48 51.1396C245.86 52.4595 243.211 53.8019 240.591 55.1219C241.305 57.3144 242.02 59.5069 242.764 61.6994C244.639 58.1869 246.574 54.6744 248.48 51.1396Z" fill="#DD8F56"/>
<path d="M256.19 51.6094C256.398 54.1375 256.606 56.6656 256.815 59.1937C254.046 60.9835 251.278 62.7733 248.48 64.5854L256.19 51.6094Z" fill="#E0A264"/>
<path d="M266.668 52.907C263.483 54.8758 260.268 56.8446 257.083 58.8357C258.958 59.3503 260.863 59.8872 262.739 60.4018C263.156 59.932 263.572 59.4845 263.989 59.0147C264.852 56.9788 265.775 54.9429 266.668 52.907Z" fill="#AA4E20"/>
<path d="M264.614 44.3607C265.091 47.4705 266.014 50.1999 266.46 53.3097C263.275 55.1666 259.643 57.4039 256.428 59.2608C259.167 54.2941 261.876 49.3274 264.614 44.3607Z" fill="#EDAF79"/>
<path d="M264.614 44.3607L255.237 51.0948C255.684 53.4887 256.13 55.8826 256.577 58.2988C256.696 59.8201 256.815 61.3414 256.904 62.8628L264.614 44.3607Z" fill="#E19150"/>
<path d="M272.295 40.6021C269.615 42.0116 266.966 43.4434 264.287 44.8529C265.001 47.6718 265.716 50.4908 266.46 53.3097C268.425 49.0813 270.36 44.8529 272.295 40.6021Z" fill="#FAD2A0"/>
<path d="M252.945 37.1568C251.218 42.3248 249.521 47.5152 247.795 52.6833C244.997 52.3029 242.169 51.9226 239.37 51.5423C243.895 46.7546 248.42 41.9668 252.945 37.1568Z" fill="#E28B48"/>
<path d="M253.243 36.0381C255.029 39.4164 256.785 42.7946 258.571 46.1729C254.85 48.1864 251.129 50.1776 247.408 52.1911L253.243 36.0381Z" fill="#F6BE85"/>
<path d="M258.72 45.9939L252.052 60.6926C250.415 57.7395 248.777 54.7639 247.14 51.8107C251.01 49.8643 254.88 47.9403 258.72 45.9939Z" fill="#FAD1A6"/>
<path d="M269.794 34.1588C267.859 37.9622 265.894 41.7431 263.959 45.5464C261.518 47.1796 258.958 49.1932 256.517 50.8264C257.291 49.5959 257.946 47.6942 258.512 45.9715C259.673 42.4367 259.762 39.3493 259.435 37.2015C262.888 36.1947 266.341 35.188 269.794 34.1588Z" fill="#EA8C3D"/>
<path d="M267.948 21.5631C268.425 25.9481 268.901 30.3331 269.407 34.7182C267.8 35.3446 266.192 35.9934 264.585 36.6198C263.424 36.6422 262.292 36.6646 261.131 36.7093L267.948 21.5631Z" fill="#D86725"/>
<path d="M251.844 35.9486C255.237 35.0537 258.958 34.1588 262.352 33.2639C260.923 38.074 259.494 42.817 258.065 47.6271C256.071 43.7119 253.778 39.8638 251.844 35.9486Z" fill="#FAD197"/>
<path d="M257.559 29.7291C259.048 31.407 260.566 33.0626 262.054 34.7405C259.286 35.009 256.517 35.2775 253.719 35.5459C254.999 33.6219 256.279 31.6755 257.559 29.7291Z" fill="#F8C38A"/>
<path d="M269.556 34.5392C270.479 36.5303 271.402 38.6333 272.295 40.6021C269.615 42.0563 266.966 43.3987 264.287 44.8529C266.043 41.4299 267.8 37.9845 269.556 34.5392Z" fill="#FBCA8E"/>
<path d="M270.389 22.6594C271.58 26.2614 272.801 29.8409 273.991 33.4429C272.473 33.868 270.925 34.2931 269.407 34.7405C269.705 30.6911 270.062 26.6864 270.389 22.6594Z" fill="#FBD195"/>
<path d="M273.991 33.4429C273.128 36.4856 272.265 39.5506 271.402 42.5933C270.747 39.9757 270.062 37.3581 269.407 34.7405C270.925 34.2931 272.444 33.868 273.991 33.4429Z" fill="#FBD8A7"/>
<path d="M268.365 22.3238C270.717 22.1672 273.069 21.9882 275.42 21.8316C274.944 25.702 274.468 29.5725 273.962 33.4429C272.116 29.7291 270.241 26.0153 268.365 22.3238Z" fill="#FCDDB5"/>
<path d="M272.622 10.3321C271.878 14.0236 271.134 17.7151 270.36 21.4065C271.997 22.6818 273.634 23.957 275.271 25.2322C274.408 20.2432 273.515 15.2765 272.622 10.3321Z" stroke="#FDFAFB" stroke-miterlimit="10"/>
<path d="M271.848 9.19113C272.83 14.9409 273.783 20.713 274.765 26.4627C273.009 24.9861 271.282 23.4872 269.526 22.0106L271.848 9.19113Z" fill="#FACD9F"/>
<path d="M271.67 7.6698C273.456 8.78842 275.272 9.88468 277.058 11.0033C276.224 17.0439 275.361 23.1068 274.527 29.1474C273.575 21.9882 272.622 14.829 271.67 7.6698Z" fill="#FCE3C2"/>
<path d="M271.729 10.0189C272.771 7.98301 273.783 5.92475 274.795 3.88885C275.807 3.41903 276.79 2.97158 277.802 2.50175C277.474 6.01424 277.117 9.54909 276.79 13.0616C275.093 12.0548 273.396 11.0257 271.729 10.0189Z" fill="#FDE8D6"/>
<path d="M272.116 0.242126C273.158 1.42787 274.17 2.61361 275.182 3.79935C276.046 3.3519 276.909 2.92683 277.772 2.47938C275.897 1.74108 274.021 1.00279 272.116 0.242126Z" fill="#FBDEBB"/>
<path d="M272.116 0.30925V9.81756C269.735 7.42371 267.353 5.02985 264.942 2.61362C267.353 1.85295 269.735 1.06991 272.116 0.30925Z" fill="#EF8A51"/>
<path d="M272.116 9.81756C268.365 9.2135 264.614 8.60944 260.864 7.98301L265.18 2.65836C267.532 5.05221 269.824 7.44607 272.116 9.81756Z" fill="#DF723A"/>
<path d="M271.61 10.1755C270.747 11.9206 269.913 13.6433 269.05 15.3883C266.579 15.1646 264.138 14.9409 261.667 14.7171C264.971 13.2182 268.306 11.6969 271.61 10.1755Z" fill="#E5733B"/>
<path d="M268.633 15.2093L270.121 21.4065C270.776 17.2005 271.461 13.0168 272.116 8.81081C270.955 10.9362 269.794 13.0616 268.633 15.2093Z" fill="#F19861"/>
<path d="M268.722 15.5897C268.365 17.9835 268.008 20.3774 267.651 22.7936C268.246 26.7759 268.812 30.7582 269.407 34.7405C269.735 30.6464 270.062 26.5522 270.419 22.4804C269.824 20.176 269.258 17.8717 268.722 15.5897Z" fill="#E98145"/>
<path d="M263.334 14.829C263.364 15.2093 263.453 15.612 263.483 15.9924C264.882 18.431 266.311 20.8248 267.71 23.2634C268.127 20.4445 268.514 17.6256 268.931 14.7843C267.115 14.7843 265.299 14.8066 263.483 14.8066" fill="#D35B28"/>
<path d="M263.543 16.0819C263.066 19.3259 262.59 22.5475 262.114 25.7915C263.9 25.0756 265.716 24.3373 267.502 23.6214L267.919 21.5855C266.49 19.751 265.001 17.9164 263.543 16.0819Z" fill="#D35B28"/>
<path d="M267.71 23.2187C265.865 27.1563 264.049 31.0938 262.203 35.0537V25.6125L267.71 23.2187Z" fill="#D86725"/>
<path d="M247.229 36.5527V45.3227C244.729 47.6047 242.228 49.8867 239.758 52.1687C239.43 49.8643 239.073 47.56 238.745 45.2556C241.573 42.3472 244.401 39.4387 247.229 36.5527Z" fill="#D8813D"/>
<path d="M247.229 37.1791C249.105 37.1344 251.01 37.0896 252.885 37.0449C251.099 35.8368 249.343 34.6287 247.557 33.4205C247.468 34.6734 247.348 35.9263 247.229 37.1791Z" fill="#D47631"/>
<path d="M248.39 20.3326C250.296 22.637 252.231 24.9637 254.136 27.2681C251.903 29.7291 249.67 32.1677 247.438 34.6287C247.259 32.0111 247.259 29.1027 247.557 25.9481C247.765 23.9794 248.033 22.0777 248.39 20.3326Z" fill="#DB7337"/>
<path d="M251.397 16.6635C252.737 17.2229 254.076 17.7822 255.386 18.3415C255.207 21.7421 255.059 25.1427 254.88 28.5433C252.707 25.8139 250.563 23.0845 248.39 20.355C249.403 19.1021 250.385 17.8717 251.397 16.6635Z" fill="#DE7B36"/>
<path d="M257.47 21.1828C259.048 22.5251 260.625 23.8675 262.233 25.2322C262.679 22.1896 263.126 19.0574 263.572 15.9924L260.715 16.5293C259.643 18.073 258.542 19.6167 257.47 21.1828Z" fill="#FDEDD4"/>
<path d="M257.976 21.4065C257.767 24.136 257.589 26.8654 257.38 29.5949C258.988 28.1406 260.596 26.6641 262.203 25.2098L257.976 21.4065Z" fill="#FBE2BF"/>
<path d="M254.225 27.022C255.297 28.1183 256.636 30.1765 257.708 31.2728C256.279 33.3982 254.642 34.5839 253.213 36.7093C253.57 33.4877 253.898 30.266 254.225 27.022Z" fill="#EF9659"/>
<path d="M257.232 14.3368C257.44 16.5069 257.619 18.6771 257.827 20.8472C258.809 19.393 259.762 17.9164 260.744 16.4622L260.089 13.9565C259.107 14.0683 258.155 14.2026 257.232 14.3368Z" fill="#FACAA3"/>
<path d="M257.887 14.3816C257.172 15.8581 256.458 17.3123 255.743 18.7889C254.285 18.073 252.856 17.3571 251.397 16.6412C251.844 16.2161 252.796 15.4107 254.404 14.8737C255.862 14.4039 257.202 14.3592 257.887 14.3816Z" fill="#EC8548"/>
<path d="M255.386 18.2072C256.279 19.5272 257.142 20.8248 258.035 22.1448C257.023 23.9122 255.892 25.6125 254.85 27.38C254.999 24.2926 255.267 21.2946 255.386 18.2072Z" fill="#F18D5B"/>
<path d="M252.737 28.7894L257.738 31.2952C257.857 28.2525 257.946 25.1875 258.065 22.1448C256.279 24.3597 254.493 26.5746 252.737 28.7894Z" fill="#F4A875"/>
<path d="M117.497 93.3565C124.91 92.9985 132.352 92.6629 139.764 92.305C132.352 96.2649 124.969 100.247 117.557 104.207C117.527 100.605 117.527 96.9808 117.497 93.3565Z" fill="#C88A51"/>
<path d="M115.235 83.177C106.81 86.063 98.3559 88.9715 89.9314 91.8575C99.4872 92.5287 109.043 93.1999 118.599 93.871C125.654 93.3565 132.709 92.8419 139.764 92.3273C131.578 89.2623 123.391 86.2196 115.235 83.177Z" fill="#BF692C"/>
<path d="M173.909 63.1983C185.459 64.6525 197.039 66.1291 208.59 67.5833C201.624 69.6416 194.688 71.6999 187.722 73.7581C183.107 70.2457 178.523 66.7108 173.909 63.1983Z" fill="#C97137"/>
<path d="M100.976 71.4985C108.924 68.1203 115.8 65.6593 123.749 62.2811C132.382 66.1068 141.015 69.9548 149.647 73.7805L115.175 83.9824C110.085 80.1343 105.381 75.6822 100.261 71.8341L100.976 71.4985Z" fill="#C9692C"/>
<path d="M283.637 28.946C283.012 29.7738 282.386 30.624 281.761 31.4518C284.47 32.3467 286.941 33.0626 289.65 33.9351C287.566 32.2124 285.72 30.6687 283.637 28.946Z" fill="#CC5E26"/>
<path d="M152.416 72.7514C163.014 76.1744 173.641 79.5974 184.239 83.0204C175.814 84.5865 167.36 86.1525 158.935 87.7186C155.571 82.998 152.207 78.2998 148.844 73.5792C150.034 73.3107 151.225 73.0422 152.416 72.7514Z" fill="#A05220"/>
<path d="M99.1299 104.297C105.798 104.028 111.782 103.916 118.45 103.625C116.068 105.594 113.717 107.563 111.335 109.554L99.1299 104.297Z" fill="#D99F69"/>
<path d="M224.129 18.1849C226.421 21.1381 228.713 24.0912 231.005 27.022C231.452 24.0241 231.898 21.0038 232.345 18.0059C229.606 18.073 226.868 18.1401 224.129 18.1849Z" fill="#F7B780"/>
<path d="M99.1299 104.297C103.863 105.371 108.477 106.937 113.211 107.988C110.323 111.031 107.138 113.939 104.25 116.982C102.434 112.888 100.797 108.547 98.9811 104.453L99.1299 104.297Z" fill="#E9B687"/>
<path d="M231.035 26.3732C232.672 26.8207 234.28 27.2681 235.917 27.7156C236.572 25.8139 237.227 23.9122 237.882 22.0106C237.048 21.3618 236.155 20.713 235.233 20.0418C234.25 19.3482 233.298 18.6771 232.345 18.0283C231.898 20.8025 231.482 23.5766 231.035 26.3732Z" fill="#FBDAB9"/>
<path d="M231.244 26.1942C232.791 26.6864 234.339 27.201 235.917 27.6932C234.101 29.2369 231.779 30.9372 228.922 32.6152C224.933 34.9643 221.092 36.5527 217.937 37.6266C222.372 33.8233 226.808 29.9976 231.244 26.1942Z" fill="#F8BA8D"/>
<path d="M224.129 18.1849C222.908 24.3149 221.718 30.4226 220.497 36.5527C223.92 33.2639 227.374 29.9975 230.797 26.7088L224.129 18.1849Z" fill="#F19F69"/>
<path d="M224.129 18.1849C220.884 19.0127 217.61 19.8628 214.365 20.6906C216.419 25.9705 218.443 31.2504 220.497 36.5527C221.718 30.4226 222.938 24.3149 224.129 18.1849Z" fill="#E58048"/>
<path d="M214.365 20.6906C211.775 23.9122 209.185 27.1339 206.595 30.3779C211.239 32.4362 215.853 34.4944 220.497 36.5527C218.473 31.2504 216.419 25.9705 214.365 20.6906Z" fill="#E27942"/>
<path d="M196.503 27.2681C199.867 28.2972 203.231 29.3488 206.595 30.3779C209.185 27.1563 211.775 23.9346 214.365 20.6906C208.411 22.8831 202.457 25.0756 196.503 27.2681Z" fill="#DF7D3E"/>
<path d="M207.935 29.9081C208.858 33.689 209.81 37.47 210.733 41.2733C213.978 39.7072 217.252 38.1188 220.497 36.5527C216.3 34.3378 212.132 32.123 207.935 29.9081Z" fill="#DF7744"/>
<path d="M190.401 29.5277C193.169 28.4986 195.938 27.4695 198.736 26.4403C200.969 29.1474 203.201 31.8321 205.464 34.5392L190.401 29.5277Z" fill="#E19552"/>
<path d="M203.38 32.7046C205.821 35.792 208.292 38.6333 210.733 41.2733C209.81 37.4924 208.857 33.7114 207.935 29.9081C204.868 28.7447 201.802 27.6037 198.706 26.4403C200.135 28.4762 201.683 30.5569 203.38 32.7046Z" fill="#D56229"/>
<path d="M203.291 33.8233C203.469 36.9778 203.648 40.1323 203.826 43.3092C206.119 42.638 208.441 41.9445 210.733 41.2733L204.63 34.2931C204.184 34.1365 203.737 33.9799 203.291 33.8233Z" fill="#DF824D"/>
<path d="M190.49 29.5277C186.948 30.0199 183.375 30.5345 179.833 31.0267C187.841 35.1209 195.819 39.1927 203.827 43.2868C199.391 38.7228 194.926 34.1141 190.49 29.5277Z" fill="#F5AF71"/>
<path d="M179.386 30.6911H170.158L178.553 34.8748C181.202 34.3154 183.822 33.7561 186.471 33.1968C184.12 32.369 181.768 31.5413 179.386 30.6911Z" fill="#FACD98"/>
<path d="M148.427 36.5527C153.249 37.2686 157.864 38.0964 162.656 38.8123C153.398 43.0855 144.17 47.202 134.912 51.4528C139.377 46.4637 143.962 41.5418 148.427 36.5527Z" fill="#F6C78E"/>
<path d="M187.156 73.8477C194.747 74.2727 202.279 74.3846 209.87 74.7873C210.822 76.0402 211.834 77.6062 212.817 78.8591C202.368 80.3804 191.949 81.9241 181.5 83.4455C183.405 80.2462 185.281 77.0469 187.156 73.8477Z" fill="#99491A"/>
<path d="M229.458 70.7603C232.196 70.2681 234.935 69.7535 237.674 69.2613C234.935 70.8721 232.196 72.4829 229.458 74.0938C223.623 75.7717 218.651 77.1812 212.817 78.8591C218.651 76.0625 223.623 73.5344 229.458 70.7603Z" fill="#AC612E"/>
<path d="M245.652 65.7712C246.783 66.1068 247.884 66.42 249.015 66.7556C253.6 64.6302 258.154 62.5048 262.739 60.4018C262.441 59.0147 262.114 57.6276 261.816 56.2405C256.428 59.395 251.04 62.5719 245.652 65.7712Z" fill="#A34E1F"/>
<path d="M178.88 48.0298C185.251 46.7546 191.592 45.4793 197.962 44.2265C203.082 44.6739 208.173 45.1214 213.293 45.5688C206.178 49.4393 199.093 53.3321 191.979 57.2025C187.573 54.1375 183.227 51.0948 178.88 48.0298Z" fill="#F5C189"/>
<path d="M190.49 29.5277C194.777 30.5792 199.064 31.6308 203.38 32.7046C203.529 36.2395 203.678 39.7743 203.827 43.3092C199.391 38.7228 194.926 34.1141 190.49 29.5277Z" fill="#F1A56A"/>
<path d="M247.229 36.5527C249.373 36.5303 251.278 36.4632 253.421 36.4408C251.278 39.3716 249.373 42.3696 247.229 45.3227V36.5527Z" fill="#DD8140"/>
<path d="M185.102 32.4138C182.869 33.1521 180.637 33.8904 178.374 34.6287C179.922 37.0449 181.47 39.4611 183.048 41.8774C188.525 42.7723 194.003 43.6448 199.48 44.5397C200.909 44.137 202.368 43.7119 203.797 43.3092L185.102 32.4138Z" fill="#F9C171"/>
<path d="M239.49 51.2514C239.876 52.6162 240.263 53.9585 240.65 55.3232C242.824 54.1599 244.967 52.9965 247.14 51.8107C244.61 51.6318 242.05 51.4304 239.49 51.2514Z" fill="#DD8546"/>
<path d="M272.116 0.242126C273.158 1.42787 274.17 2.61361 275.182 3.79935L272.116 9.81756V0.242126Z" fill="#FACCA3"/>
<path d="M257.232 14.3816C257.5 16.9768 257.767 19.5496 258.035 22.1224C257.142 20.8472 256.279 19.572 255.386 18.3191C256.011 17.0215 256.607 15.7015 257.232 14.3816Z" fill="#F49F66"/>
<path d="M260.06 13.9565C261.102 13.9788 262.143 14.0012 263.215 14.0236C263.334 14.6724 263.483 15.3436 263.602 15.9924C263.126 16.3951 262.65 16.753 262.173 17.1557C261.697 16.9544 261.221 16.7307 260.744 16.5293C260.506 15.6568 260.268 14.8066 260.06 13.9565Z" fill="#FDEDD4"/>
<path d="M292.746 13.0168C295.217 12.2562 297.717 11.4731 300.188 10.7125C300.158 14.2921 300.128 17.8717 300.099 21.4736C297.658 18.6547 295.217 15.8358 292.746 13.0168Z" fill="#F49F66"/>
<path d="M296.05 26.1495C297.658 27.984 299.295 29.7962 300.902 31.6307C301.676 29.3711 302.45 27.1115 303.195 24.8743C301.825 23.3529 300.426 21.8092 299.057 20.2879L296.05 26.1495Z" fill="#F49F66"/>
<path d="M303.849 15.8805C304.385 16.2608 304.951 16.6635 305.487 17.0439L303.224 24.8519C301.825 23.3306 300.426 21.7868 299.027 20.2655C300.634 18.8113 302.242 17.3571 303.849 15.8805Z" fill="#F49F66"/>
<path d="M300.188 10.7125L307.005 13.0168C306.499 14.3592 305.993 15.7239 305.487 17.0663C303.611 17.894 301.736 18.6994 299.861 19.5272C299.98 16.5964 300.099 13.6433 300.188 10.7125Z" fill="#F49F66"/>
<path d="M296.705 24.74C298.134 27.0444 299.563 29.3264 300.992 31.6307C297.747 32.3243 295.097 32.8836 291.853 33.5772C293.669 30.6016 294.889 27.7379 296.705 24.74Z" fill="#F49F66"/>
<path d="M300.694 32.4138C300.902 34.9643 301.141 37.5147 301.349 40.0428C299.176 40.6245 297.092 41.2733 294.919 41.855C296.884 38.7452 298.729 35.5236 300.694 32.4138Z" fill="#B84D1C"/>
<path d="M306.678 29.7738L308.672 37.5371C306.231 38.3649 303.79 39.215 301.349 40.0428C301.141 37.4923 300.902 34.9419 300.694 32.4138C302.688 31.5413 304.683 30.6464 306.678 29.7738Z" fill="#D56730"/>
<path d="M311.679 36.4185C304.088 41.676 296.467 46.9559 288.876 52.2135L294.949 41.855C300.128 40.1994 306.499 38.0964 311.679 36.4185Z" fill="#C76126"/>
<path d="M312.84 29.4159C313.792 31.4294 314.715 33.4205 315.668 35.4341C313.108 36.6422 310.547 37.8503 308.017 39.0584C307.571 35.971 307.124 32.8836 306.677 29.7962C308.732 29.662 310.786 29.5277 312.84 29.4159Z" fill="#E77C47"/>
<path d="M309.178 37.291C309.625 38.5886 310.071 39.8862 310.518 41.1614C308.225 42.4367 305.933 43.7119 303.641 44.9871C303.671 43.8238 303.671 42.6828 303.701 41.5194L309.178 37.291Z" fill="#D68143"/>
<path d="M303.701 41.5418C304.713 42.034 305.755 42.5262 306.767 43.0183C303.433 45.2332 299.444 47.5823 294.711 49.7972C292.389 50.8935 290.156 51.8331 287.983 52.6833C293.222 48.9694 298.461 45.2556 303.701 41.5418Z" fill="#D68143"/>
<path d="M312.84 29.4159C314.834 29.7515 316.829 30.087 318.823 30.4226C318.317 31.9663 317.811 33.51 317.335 35.0537C316.769 35.188 316.233 35.2998 315.668 35.4341C314.745 33.4205 313.792 31.407 312.84 29.4159Z" fill="#F8BE8F"/>
<path d="M309.089 38.0964C308.315 39.8415 307.541 41.6089 306.767 43.3539C309.922 41.5641 313.048 39.7743 316.204 38.0069C316.68 36.7317 317.156 35.4564 317.632 34.2036C314.775 35.4788 311.947 36.7988 309.089 38.0964Z" fill="#DD7E61"/>
<path d="M318.853 30.4003C319.329 31.4965 319.776 32.5928 320.252 33.689C319.389 33.8456 318.525 34.0022 317.632 34.1588C318.019 32.9283 318.436 31.6755 318.853 30.4003Z" fill="#FBDCBE"/>
<path d="M320.222 33.7114C320.103 34.4273 319.984 35.1656 319.895 35.8815C318.347 36.7764 316.829 37.6713 315.281 38.5438C316.055 37.0896 316.829 35.6354 317.603 34.1812C318.496 34.0246 319.359 33.868 320.222 33.7114Z" fill="#F0A77F"/>
<path d="M254.94 26.0153L248.182 33.868L252.022 36.4632L253.421 36.4408L254.94 26.0153Z" fill="#DD793B"/>
<path d="M81.6259 107.093C80.0481 115.55 78.4704 123.984 76.9224 132.441C67.1583 132.441 57.3941 132.441 47.6002 132.419C58.9421 123.984 70.284 115.55 81.6259 107.093Z" fill="#BC662D"/>
<path d="M57.4536 139.399C56.5903 144.276 55.7568 149.153 54.8935 154.031C49.2672 154.053 43.6409 154.098 37.9849 154.12C44.4744 149.198 50.964 144.299 57.4536 139.399Z" fill="#BC662D"/>
<path d="M30.5427 133.94C32.2693 138.169 34.0256 142.375 35.7522 146.603L17.2063 146.693C21.6418 142.442 26.0774 138.191 30.5427 133.94Z" fill="#E6B281"/>
<path d="M20.2129 122.306C19.2008 125.685 18.2184 129.063 17.2063 132.441C25.1546 129.063 33.1326 125.662 41.0808 122.284C34.1149 122.284 27.1788 122.284 20.2129 122.306Z" fill="#D8853F"/>
<path d="M65.8187 152.308C71.3855 152.33 76.9225 152.353 82.4594 152.375C83.4716 148.035 84.454 143.695 85.4661 139.354C78.917 143.672 72.3678 147.99 65.8187 152.308Z" fill="#EDAC65"/>
<path d="M26.2858 156.067L36.0798 168.506C30.2153 168.506 24.3211 168.483 18.4567 168.483C21.0465 164.344 23.6662 160.205 26.2858 156.067Z" fill="#FBDBB4"/>
<path d="M6.2812 160.34C4.19739 157.856 2.11358 155.395 0 152.912C2.70896 150.093 5.44768 147.252 8.15664 144.433C7.53149 149.735 6.90635 155.037 6.2812 160.34Z" fill="#EDA760"/>
<path d="M204.124 113.827C203.975 113.38 203.946 112.888 203.856 112.418C203.767 112.038 203.707 111.657 203.588 111.277C203.439 110.807 203.082 110.449 202.576 110.181C202.398 110.091 202.189 110.002 202.04 109.89C201.594 109.621 201.505 109.219 201.862 108.883C202.13 108.637 202.427 108.391 202.695 108.145C203.588 107.384 203.916 106.512 203.767 105.505C203.707 104.923 203.648 104.341 203.648 103.782C203.707 102.194 204.571 100.874 206.029 99.755C207.607 98.5693 209.542 97.8757 211.715 97.5625C212.221 97.4954 212.727 97.4506 213.263 97.4283V93.6026H186.203V97.3835C188.228 97.473 190.163 97.8534 191.919 98.6588C193.765 99.5089 195.134 100.672 195.789 102.238C196.116 103.021 196.206 103.827 196.116 104.655C196.087 105.035 196.057 105.415 195.997 105.796C195.908 106.69 196.325 107.451 197.099 108.122C197.337 108.346 197.605 108.547 197.843 108.771C198.379 109.219 198.17 109.711 197.635 109.979C197.367 110.113 197.129 110.248 196.89 110.382C196.355 110.74 196.146 111.232 196.057 111.724C195.938 112.284 195.878 112.865 195.789 113.425C195.759 113.559 195.729 113.693 195.67 113.827C195.521 114.23 195.223 114.498 194.807 114.655L194.926 118.749H205.017L204.898 114.61C204.481 114.476 204.243 114.208 204.124 113.827Z" fill="#A19D9D"/>
<path d="M232.524 114.23C232.762 115.707 233.149 117.161 233.506 118.615C231.244 118.615 228.951 118.615 226.689 118.615C227.582 115.416 228.445 112.127 227.612 108.928C227.403 108.189 227.016 107.362 226.094 107.048C225.439 106.847 224.694 106.937 224.099 107.227C223.504 107.496 223.057 107.943 222.73 108.391C221.599 109.912 221.42 111.724 221.658 113.469C221.896 115.214 222.492 116.892 222.819 118.615C220.557 118.615 218.294 118.615 216.002 118.615C216.984 115.617 217.312 112.507 217.342 109.398C217.371 107.474 217.431 105.549 217.342 103.603C217.312 102.954 217.312 102.328 217.252 101.679C217.133 100.023 216.657 98.793 215.02 97.6744C214.692 97.4506 214.424 97.3164 215.228 97.3164C216.419 97.3164 217.639 97.3164 218.83 97.3164C219.574 97.3164 220.318 97.3164 221.033 97.3164C221.777 97.3164 222.492 97.294 223.236 97.2717C223.295 97.2717 223.355 97.2717 223.414 97.2717C223.712 97.3388 223.474 97.7639 223.414 97.9205C223.266 98.4127 223.027 98.8825 222.879 99.3523C222.67 100.046 222.492 100.739 222.343 101.433C222.045 102.82 221.837 104.23 221.688 105.639C221.599 106.623 221.539 107.585 221.539 108.57C222.253 107.004 224.159 105.751 226.332 105.549C228.505 105.348 230.857 106.288 231.66 107.831C232.137 108.749 232.107 109.756 232.137 110.74C232.196 111.926 232.315 113.089 232.524 114.23Z" fill="#A19D9D"/>
<path d="M247.2 116.176C247.884 115.707 248.241 115.125 248.271 114.387H249.551C249.492 115.751 248.896 116.87 247.765 117.743C246.634 118.615 245.026 119.062 242.913 119.062C240.472 119.062 238.448 118.503 236.87 117.362C235.292 116.221 234.518 114.499 234.518 112.172C234.518 110.539 234.816 109.219 235.381 108.212C235.947 107.205 236.84 106.489 238.061 106.019C239.281 105.55 240.889 105.326 242.883 105.326C247.348 105.326 249.581 106.422 249.581 108.592C249.581 110.136 248.599 111.277 246.664 111.97C244.729 112.664 242.466 113.089 239.906 113.179C240.263 114.409 240.829 115.326 241.663 115.953C242.496 116.557 243.478 116.87 244.669 116.87C245.681 116.87 246.515 116.646 247.2 116.176ZM240.412 107.205C239.906 108.01 239.638 109.196 239.638 110.74C239.638 111.277 239.668 111.791 239.728 112.261C241.365 112.149 242.734 111.769 243.806 111.143C244.878 110.516 245.413 109.644 245.413 108.503C245.413 107.697 245.205 107.093 244.788 106.646C244.372 106.221 243.746 105.997 242.913 105.997C241.782 105.997 240.948 106.4 240.412 107.205Z" fill="#A19D9D"/>
<path d="M264.227 105.997L262.322 108.503C262.173 108.122 261.995 107.831 261.727 107.653C261.459 107.451 261.072 107.362 260.506 107.362C259.703 107.362 258.988 107.608 258.363 108.078C257.738 108.547 257.232 109.151 256.874 109.89C256.517 110.628 256.339 111.411 256.309 112.217C256.339 113.022 256.398 113.715 256.517 114.32C256.636 114.924 256.815 115.595 257.023 116.333C257.291 117.385 257.47 118.145 257.559 118.637H250.802C250.861 118.145 251.04 117.385 251.337 116.333C251.576 115.595 251.754 114.901 251.844 114.275C251.963 113.648 252.022 112.932 252.052 112.105C252.022 111.277 251.963 110.539 251.844 109.89C251.724 109.263 251.546 108.57 251.337 107.876C251.07 106.825 250.891 106.064 250.802 105.572H257.559C257.5 106.176 257.351 106.937 257.023 107.809L256.874 108.413C257.351 107.563 257.976 106.869 258.78 106.355C259.554 105.84 260.506 105.594 261.637 105.594C262.65 105.594 263.543 105.728 264.227 105.997Z" fill="#A19D9D"/>
<path d="M282.535 116.557L281.969 118.503C281.731 118.526 281.434 118.526 281.047 118.526C279.767 118.526 278.784 118.369 278.07 118.078C277.355 117.787 276.819 117.317 276.432 116.669C275.956 117.34 275.242 117.854 274.289 118.235C273.337 118.615 272.176 118.816 270.806 118.816C268.782 118.816 267.145 118.481 265.865 117.832C264.585 117.161 263.959 116.176 263.959 114.856C263.959 113.917 264.317 113.179 265.031 112.664C265.745 112.149 266.549 111.769 267.442 111.568C268.335 111.366 269.675 111.12 271.402 110.874C272.384 110.695 273.158 110.516 273.753 110.36C274.349 110.181 274.825 109.935 275.182 109.577C275.539 109.219 275.718 108.771 275.718 108.189C275.718 107.675 275.599 107.272 275.361 106.981C275.123 106.69 274.706 106.556 274.111 106.556C273.426 106.556 272.265 106.825 270.687 107.362C269.109 107.899 267.68 108.458 266.4 109.062L264.585 106.534C265.478 106.176 266.639 105.907 268.038 105.706C269.437 105.505 270.895 105.393 272.443 105.393C274.825 105.393 276.671 105.706 277.98 106.333C279.29 106.959 279.945 107.943 279.975 109.286V113.111C279.975 114.208 280.064 115.103 280.213 115.796C280.362 116.49 280.749 116.848 281.285 116.87C281.702 116.848 282.118 116.758 282.535 116.557ZM274.736 116.579C275.391 115.572 275.718 114.185 275.718 112.463V110.941C274.408 111.143 273.396 111.344 272.622 111.545C269.794 112.284 268.395 113.581 268.395 115.416C268.395 116.176 268.663 116.825 269.199 117.34C269.734 117.854 270.538 118.1 271.58 118.1C273.039 118.1 274.11 117.586 274.736 116.579Z" fill="#A19D9D"/>
<path d="M299.325 106.959C300.605 108.033 301.23 109.733 301.23 112.082C301.23 114.476 300.575 116.199 299.235 117.25C297.896 118.302 295.752 118.839 292.746 118.839C292.002 118.839 291.406 118.794 290.989 118.727C290.573 118.66 290.126 118.548 289.709 118.414C289.293 118.279 288.965 118.19 288.757 118.145C288.816 118.772 288.876 119.331 288.995 119.823C289.114 120.315 289.263 120.875 289.471 121.546C289.739 122.597 290.037 123.671 290.096 123.873H283.309C283.369 123.604 283.428 122.553 283.726 121.568C283.964 120.74 284.143 120.024 284.262 119.398C284.381 118.772 284.44 118.011 284.44 117.138V112.373C284.44 111.478 284.381 110.74 284.262 110.091C284.143 109.465 283.964 108.749 283.726 107.921C283.458 106.937 283.279 106.176 283.19 105.617H289.948L289.888 106.154C290.781 105.617 291.912 105.348 293.282 105.348C296.05 105.348 298.045 105.885 299.325 106.959ZM295.842 116.758C296.467 115.774 296.794 114.23 296.794 112.082C296.794 110.091 296.467 108.57 295.812 107.518C295.157 106.489 294.175 105.975 292.865 105.975C291.287 105.975 290.156 106.601 289.471 107.876C289.233 108.682 289.054 109.398 288.935 110.046C288.816 110.695 288.757 111.456 288.757 112.351V112.686C288.906 114.051 289.114 115.125 289.382 115.908C289.65 116.691 290.067 117.273 290.602 117.653C291.138 118.033 291.883 118.212 292.776 118.212C294.175 118.212 295.217 117.72 295.842 116.758Z" fill="#A19D9D"/>
<path d="M319.18 107.899C318.942 108.726 318.764 109.442 318.645 110.069C318.525 110.695 318.466 111.456 318.466 112.351V118.705C318.436 120.629 317.662 121.971 316.084 122.732C314.536 123.47 312.75 123.85 310.756 123.85C309.178 123.85 307.749 123.738 306.439 123.492C305.13 123.246 303.79 122.799 302.421 122.128L305.07 119.443L305.606 120.002C306.499 120.964 307.332 121.702 308.077 122.217C308.821 122.732 309.714 122.978 310.756 122.978C312.066 122.978 312.959 122.508 313.435 121.568C313.941 120.629 314.179 119.488 314.179 118.123V115.886C313.792 116.736 313.137 117.452 312.274 117.989C311.381 118.548 310.25 118.816 308.88 118.816C307.332 118.816 306.171 118.548 305.397 118.011C304.623 117.474 304.117 116.825 303.879 116.065C303.641 115.304 303.522 114.431 303.522 113.425V112.328C303.522 111.433 303.462 110.695 303.343 110.069C303.224 109.442 303.046 108.726 302.808 107.899C302.54 106.914 302.361 106.154 302.272 105.594H309.029C308.97 106.154 308.791 106.914 308.493 107.899C308.255 108.726 308.077 109.442 307.958 110.069C307.838 110.695 307.779 111.456 307.779 112.328C307.809 113.827 307.987 115.058 308.345 115.997C308.702 116.959 309.416 117.429 310.488 117.429C311.173 117.429 311.827 117.161 312.393 116.646C312.959 116.132 313.405 115.483 313.703 114.7C314.03 113.917 314.179 113.156 314.179 112.395V112.351C314.179 111.456 314.12 110.718 314.001 110.069C313.882 109.442 313.703 108.726 313.465 107.899C313.197 106.914 313.018 106.154 312.929 105.594H319.686C319.627 106.154 319.478 106.937 319.18 107.899Z" fill="#A19D9D"/>
<path d="M271.074 141.994C271.074 142.844 271.134 143.583 271.253 144.209C271.372 144.836 271.55 145.529 271.789 146.335C272.057 147.341 272.235 148.102 272.295 148.617H266.847C266.907 148.08 267.026 147.565 267.174 147.05C267.323 146.536 267.413 146.245 267.442 146.156C267.472 146.021 267.532 145.82 267.621 145.529C266.698 147.766 264.495 148.907 261.012 148.907C259.018 148.907 257.291 148.572 255.773 147.923C254.255 147.274 253.094 146.245 252.201 144.88C251.338 143.516 250.891 141.793 250.891 139.712C250.891 136.491 251.784 134.142 253.54 132.687C255.297 131.233 258.035 130.495 261.697 130.495C263.93 130.495 265.716 130.786 267.026 131.39C268.335 131.971 269.377 132.844 270.122 134.007L268.187 136.401C267.621 136.066 267.145 135.708 266.787 135.305C266.43 134.902 266.073 134.365 265.686 133.739C265.299 133.135 264.972 132.665 264.674 132.352C264.376 132.016 264.019 131.748 263.513 131.524C263.037 131.3 262.441 131.188 261.697 131.188C259.881 131.188 258.512 131.815 257.5 133.045C256.517 134.298 256.011 136.11 256.011 138.504C256.011 141.167 256.488 143.225 257.47 144.679C258.452 146.111 259.941 146.849 261.965 146.849C263.483 146.849 264.763 146.558 265.775 145.977C266.787 145.395 267.294 144.545 267.294 143.426C267.294 143.068 267.204 142.777 267.026 142.531C266.847 142.308 266.549 142.039 266.162 141.726C265.716 141.39 265.418 141.077 265.18 140.764C264.972 140.473 264.853 140.07 264.853 139.578H271.044V141.994H271.074Z" fill="#A19D9D"/>
<path d="M289.501 138.057C289.263 138.862 289.084 139.578 288.965 140.182C288.846 140.809 288.787 141.547 288.787 142.419V148.684C288.757 150.585 287.983 151.905 286.435 152.644C284.887 153.382 283.16 153.74 281.196 153.74C279.648 153.74 278.219 153.628 276.968 153.382C275.688 153.136 274.379 152.688 273.009 152.04L275.599 149.4L276.105 149.937C276.998 150.876 277.802 151.592 278.546 152.107C279.29 152.621 280.183 152.867 281.196 152.867C282.476 152.867 283.369 152.398 283.845 151.48C284.321 150.563 284.589 149.422 284.589 148.08V145.865C284.202 146.715 283.577 147.408 282.714 147.945C281.851 148.505 280.719 148.773 279.35 148.773C277.832 148.773 276.671 148.505 275.927 147.968C275.153 147.431 274.676 146.804 274.438 146.044C274.2 145.283 274.081 144.433 274.081 143.449V142.419C274.081 141.547 274.021 140.809 273.902 140.182C273.783 139.556 273.605 138.862 273.366 138.057C273.099 137.095 272.92 136.334 272.86 135.797H279.529C279.469 136.356 279.29 137.095 279.022 138.057C278.784 138.862 278.606 139.578 278.487 140.182C278.368 140.809 278.308 141.547 278.308 142.419C278.338 143.896 278.516 145.104 278.844 146.044C279.171 146.983 279.886 147.453 280.957 147.453C281.642 147.453 282.267 147.207 282.833 146.693C283.398 146.178 283.815 145.529 284.143 144.768C284.44 144.008 284.619 143.247 284.619 142.509V142.464C284.619 141.592 284.559 140.853 284.44 140.227C284.321 139.6 284.143 138.907 283.905 138.101C283.637 137.139 283.458 136.379 283.339 135.819H290.007C289.948 136.356 289.769 137.095 289.501 138.057Z" fill="#A19D9D"/>
<path d="M318.585 144.321C318.704 144.947 318.883 145.619 319.091 146.357C319.359 147.364 319.538 148.124 319.597 148.639H312.929C312.988 148.124 313.167 147.364 313.435 146.357C313.673 145.641 313.822 144.97 313.941 144.321C314.06 143.695 314.12 142.934 314.149 142.084C314.149 140.697 313.971 139.556 313.614 138.661C313.256 137.766 312.542 137.318 311.47 137.318C310.726 137.318 310.071 137.565 309.535 138.057C308.999 138.549 308.583 139.153 308.315 139.891C308.017 140.63 307.868 141.368 307.838 142.129C307.868 142.979 307.928 143.695 308.047 144.321C308.166 144.947 308.345 145.619 308.553 146.357C308.821 147.386 308.999 148.147 309.059 148.639H302.391C302.45 148.124 302.629 147.364 302.897 146.357C303.135 145.641 303.284 144.97 303.403 144.321C303.522 143.695 303.582 142.934 303.611 142.084C303.611 140.652 303.433 139.489 303.075 138.549C302.718 137.609 302.004 137.139 300.932 137.139C300.277 137.139 299.682 137.363 299.146 137.811C298.61 138.258 298.193 138.84 297.866 139.556C297.538 140.249 297.36 140.965 297.33 141.681C297.3 141.793 297.3 141.95 297.3 142.196C297.33 143.023 297.39 143.739 297.509 144.343C297.628 144.947 297.806 145.619 298.015 146.357C298.283 147.386 298.461 148.147 298.521 148.617H291.853C291.912 148.147 292.091 147.386 292.359 146.357C292.597 145.619 292.746 144.947 292.865 144.343C292.984 143.739 293.043 143.023 293.073 142.196C293.043 141.368 292.984 140.652 292.865 140.026C292.746 139.399 292.567 138.728 292.359 138.034C292.091 137.005 291.912 136.245 291.853 135.775H298.521C298.461 136.177 298.372 136.737 298.164 137.453C299.206 136.356 300.664 135.797 302.51 135.797C304.296 135.797 305.606 136.155 306.35 136.893C307.124 137.632 307.571 138.571 307.69 139.735C307.928 138.683 308.464 137.766 309.327 136.983C310.19 136.2 311.411 135.797 313.018 135.797C314.536 135.797 315.697 136.066 316.471 136.625C317.245 137.184 317.751 137.833 317.96 138.594C318.168 139.354 318.287 140.227 318.287 141.211V142.106C318.406 142.956 318.496 143.695 318.585 144.321Z" fill="#A19D9D"/>
<path d="M188.228 169.445H189.329V171.168H188.347C187.96 171.168 187.603 171.123 187.305 171.056C187.007 170.989 186.739 170.855 186.531 170.698C186.323 170.542 186.174 170.318 186.055 170.072C185.936 169.826 185.906 169.512 185.906 169.155V162.04C185.906 161.951 185.936 161.883 186.025 161.816C186.114 161.749 186.203 161.727 186.323 161.727H187.781C187.9 161.727 187.99 161.749 188.079 161.816C188.168 161.883 188.198 161.951 188.198 162.04V169.445H188.228Z" fill="#844317"/>
<path d="M197.962 169.445H199.093V171.168H189.389V169.445H190.52V166.291C190.52 165.575 190.728 165.06 191.145 164.747C191.562 164.434 192.157 164.277 192.931 164.277H195.551C196.325 164.277 196.92 164.434 197.337 164.747C197.754 165.06 197.962 165.575 197.962 166.291V169.445ZM195.67 169.445V166H192.812V169.445H195.67Z" fill="#844317"/>
<path d="M199.123 169.445H203.618V164.613C203.618 164.523 203.648 164.456 203.737 164.389C203.827 164.322 203.916 164.3 204.035 164.3H205.494C205.613 164.3 205.702 164.322 205.791 164.389C205.881 164.456 205.91 164.523 205.91 164.613V169.132C205.91 169.848 205.702 170.363 205.285 170.676C204.869 170.989 204.273 171.146 203.499 171.146H199.123V169.445ZM202.338 173.54C202.338 173.651 202.308 173.786 202.249 173.875C202.189 173.965 202.1 174.076 202.011 174.144C201.892 174.233 201.773 174.278 201.654 174.323C201.505 174.367 201.356 174.39 201.207 174.39C201.058 174.39 200.909 174.367 200.76 174.323C200.612 174.278 200.493 174.211 200.403 174.144C200.284 174.054 200.225 173.965 200.165 173.875C200.106 173.786 200.076 173.651 200.076 173.54C200.076 173.428 200.106 173.316 200.165 173.204C200.225 173.092 200.314 173.003 200.403 172.935C200.522 172.868 200.641 172.801 200.76 172.756C200.909 172.712 201.058 172.689 201.207 172.689C201.356 172.689 201.505 172.712 201.654 172.756C201.802 172.801 201.921 172.868 202.011 172.935C202.13 173.003 202.189 173.092 202.249 173.204C202.308 173.316 202.338 173.428 202.338 173.54ZM205.404 173.54C205.404 173.651 205.375 173.786 205.315 173.875C205.256 173.987 205.166 174.076 205.077 174.144C204.958 174.233 204.839 174.278 204.72 174.323C204.601 174.367 204.422 174.39 204.273 174.39C204.124 174.39 203.975 174.367 203.827 174.323C203.678 174.278 203.559 174.211 203.469 174.144C203.35 174.054 203.291 173.965 203.231 173.875C203.172 173.786 203.142 173.651 203.142 173.54C203.142 173.428 203.172 173.316 203.231 173.204C203.291 173.092 203.38 173.003 203.469 172.935C203.588 172.868 203.708 172.801 203.827 172.756C203.975 172.712 204.124 172.689 204.273 172.689C204.422 172.689 204.571 172.712 204.72 172.756C204.869 172.801 204.988 172.868 205.077 172.935C205.196 173.003 205.256 173.092 205.315 173.204C205.375 173.316 205.404 173.428 205.404 173.54Z" fill="#844317"/>
<path d="M207.726 173.316C208.024 173.293 208.322 173.271 208.619 173.204C208.917 173.159 209.155 173.07 209.393 172.935C209.631 172.824 209.81 172.645 209.989 172.466C210.167 172.287 210.257 172.018 210.346 171.727V164.613C210.346 164.523 210.376 164.456 210.465 164.389C210.554 164.322 210.644 164.3 210.763 164.3H212.221C212.34 164.3 212.43 164.322 212.519 164.389C212.608 164.456 212.638 164.523 212.638 164.613L212.608 169.468H213.62V171.19H212.608C212.519 171.75 212.37 172.242 212.132 172.689C211.894 173.137 211.596 173.517 211.209 173.83C210.852 174.144 210.405 174.412 209.929 174.613C209.453 174.815 208.887 174.949 208.292 175.016C208.173 175.038 208.054 175.038 207.964 175.061C207.875 175.061 207.756 175.083 207.667 175.083C207.577 175.083 207.518 175.083 207.429 175.061C207.339 175.061 207.25 175.038 207.19 175.016C207.131 174.994 207.042 174.949 207.012 174.904C206.952 174.859 206.952 174.815 206.952 174.748V173.651C206.952 173.562 206.982 173.495 207.071 173.428C207.161 173.361 207.25 173.338 207.369 173.338H207.726V173.316ZM212.638 161.906C212.638 162.018 212.608 162.13 212.549 162.241C212.489 162.353 212.4 162.443 212.311 162.51C212.192 162.599 212.072 162.644 211.953 162.689C211.805 162.734 211.656 162.756 211.507 162.756C211.358 162.756 211.209 162.734 211.06 162.689C210.912 162.644 210.792 162.577 210.703 162.51C210.614 162.42 210.525 162.331 210.465 162.241C210.405 162.13 210.376 162.018 210.376 161.906C210.376 161.794 210.405 161.682 210.465 161.57C210.525 161.458 210.614 161.369 210.703 161.302C210.792 161.212 210.912 161.168 211.06 161.123C211.209 161.078 211.358 161.056 211.507 161.056C211.656 161.056 211.805 161.078 211.953 161.123C212.102 161.168 212.221 161.235 212.311 161.302C212.43 161.391 212.489 161.481 212.549 161.57C212.608 161.682 212.638 161.794 212.638 161.906Z" fill="#844317"/>
<path d="M224.873 169.445V167.275H215.049C214.93 167.275 214.841 167.253 214.752 167.186C214.662 167.119 214.633 167.051 214.633 166.962V165.15C214.752 164.635 214.96 164.165 215.288 163.74C215.615 163.315 216.002 162.957 216.478 162.644C216.955 162.331 217.52 162.107 218.145 161.928C218.771 161.749 219.455 161.66 220.17 161.66H220.616C220.795 161.66 220.973 161.66 221.122 161.682C221.301 161.704 221.42 161.749 221.539 161.794C221.658 161.839 221.718 161.906 221.718 162.018V163.114C221.718 163.203 221.688 163.271 221.599 163.338C221.509 163.405 221.42 163.427 221.301 163.427C221.092 163.427 220.884 163.427 220.676 163.427C220.467 163.427 220.259 163.427 220.051 163.427C219.693 163.427 219.336 163.45 219.009 163.494C218.681 163.539 218.354 163.651 218.026 163.785C217.729 163.942 217.461 164.143 217.223 164.434C216.984 164.725 216.806 165.083 216.687 165.553H224.784C225.558 165.553 226.153 165.709 226.57 166.022C226.987 166.336 227.195 166.85 227.195 167.566V170.832C227.195 170.922 227.165 170.989 227.076 171.056C226.987 171.123 226.897 171.146 226.778 171.146H213.71V169.423H224.873V169.445Z" fill="#844317"/>
<path d="M235.381 169.445V162.018C235.381 161.928 235.411 161.861 235.501 161.794C235.59 161.727 235.679 161.704 235.798 161.704H237.257C237.376 161.704 237.465 161.727 237.555 161.794C237.644 161.861 237.674 161.928 237.674 162.018V169.132C237.674 169.848 237.436 170.363 237.049 170.676C236.632 170.989 236.036 171.146 235.262 171.146H228.922C228.803 171.146 228.713 171.123 228.624 171.056C228.535 170.989 228.505 170.922 228.505 170.832V169.736C228.505 169.647 228.535 169.58 228.624 169.512C228.713 169.445 228.803 169.423 228.922 169.423H230.231V161.995C230.231 161.906 230.261 161.839 230.351 161.772C230.44 161.704 230.529 161.682 230.648 161.682H232.107C232.226 161.682 232.315 161.704 232.405 161.772C232.494 161.839 232.524 161.906 232.524 161.995V169.423H235.381V169.445ZM229.219 173.987V173.271C229.219 172.98 229.309 172.756 229.487 172.622C229.666 172.488 229.904 172.421 230.231 172.421H231.244C231.303 172.421 231.363 172.443 231.422 172.488C231.482 172.533 231.482 172.577 231.482 172.645V173.047C231.482 173.114 231.452 173.159 231.422 173.204C231.392 173.249 231.303 173.271 231.244 173.271H230.321V174.009H231.244C231.303 174.009 231.363 174.032 231.422 174.076C231.482 174.121 231.482 174.166 231.482 174.233V174.636C231.482 174.703 231.452 174.748 231.422 174.792C231.363 174.837 231.303 174.859 231.244 174.859H228.892C228.803 174.859 228.743 174.837 228.683 174.792C228.624 174.748 228.594 174.703 228.594 174.636V174.188C228.594 174.121 228.624 174.076 228.683 174.032C228.743 173.987 228.803 173.965 228.892 173.965H229.219V173.987Z" fill="#844317"/>
<path d="M239.49 162.018C239.49 161.928 239.519 161.861 239.609 161.794C239.698 161.727 239.787 161.704 239.906 161.704H241.365C241.484 161.704 241.573 161.727 241.663 161.794C241.752 161.861 241.782 161.928 241.782 162.018V170.9C241.782 170.989 241.752 171.056 241.663 171.123C241.573 171.19 241.484 171.213 241.365 171.213H239.906C239.787 171.213 239.698 171.19 239.609 171.123C239.519 171.056 239.49 170.989 239.49 170.9V162.018Z" fill="#844317"/>
<path d="M249.522 175.061C249.402 175.061 249.283 175.016 249.194 174.949C249.105 174.882 249.045 174.815 249.045 174.725V173.629C249.045 173.54 249.075 173.472 249.164 173.405C249.254 173.338 249.343 173.316 249.462 173.316C249.641 173.316 249.819 173.316 250.057 173.338C250.266 173.338 250.504 173.361 250.712 173.361C251.07 173.361 251.427 173.338 251.784 173.293C252.141 173.249 252.469 173.137 252.766 173.003C253.064 172.846 253.332 172.622 253.57 172.354C253.808 172.063 253.957 171.683 254.076 171.213H251.189C250.415 171.213 249.819 171.056 249.402 170.743C248.986 170.43 248.777 169.915 248.777 169.199V166.358C248.777 165.642 248.986 165.127 249.402 164.814C249.819 164.501 250.415 164.344 251.189 164.344H253.808C254.582 164.344 255.178 164.501 255.594 164.814C256.011 165.127 256.22 165.642 256.22 166.358C256.22 166.761 256.22 167.141 256.22 167.521C256.22 167.902 256.22 168.304 256.22 168.685V171.011C256.22 171.683 256.1 172.264 255.833 172.779C255.565 173.293 255.207 173.719 254.701 174.076C254.225 174.434 253.63 174.681 252.945 174.859C252.26 175.038 251.486 175.128 250.623 175.128L249.522 175.061ZM251.04 169.445H253.898V166H251.04V169.445Z" fill="#844317"/>
<path d="M270.449 169.445H271.64V171.168H265.418C265.031 171.168 264.674 171.123 264.376 171.056C264.078 170.989 263.811 170.855 263.602 170.698C263.394 170.542 263.245 170.318 263.126 170.072C263.007 169.826 262.977 169.512 262.977 169.155V166.313C262.977 165.597 263.185 165.083 263.602 164.769C264.019 164.456 264.614 164.3 265.388 164.3H268.008C268.782 164.3 269.377 164.456 269.794 164.769C270.211 165.083 270.419 165.597 270.419 166.313V169.445H270.449ZM266.311 161.906C266.311 162.018 266.281 162.13 266.222 162.241C266.162 162.353 266.073 162.443 265.984 162.51C265.865 162.599 265.746 162.644 265.626 162.689C265.478 162.734 265.329 162.756 265.18 162.756C265.031 162.756 264.882 162.734 264.733 162.689C264.585 162.644 264.465 162.577 264.376 162.51C264.257 162.42 264.198 162.331 264.138 162.241C264.079 162.13 264.049 162.018 264.049 161.906C264.049 161.794 264.079 161.682 264.138 161.57C264.198 161.458 264.287 161.369 264.376 161.302C264.495 161.212 264.614 161.168 264.733 161.123C264.882 161.078 265.031 161.056 265.18 161.056C265.329 161.056 265.478 161.078 265.626 161.123C265.775 161.168 265.894 161.235 265.984 161.302C266.103 161.391 266.162 161.481 266.222 161.57C266.281 161.682 266.311 161.794 266.311 161.906ZM268.157 169.445V166H265.299V169.445H268.157ZM269.407 161.906C269.407 162.018 269.377 162.13 269.318 162.241C269.258 162.353 269.169 162.443 269.08 162.51C268.961 162.599 268.841 162.644 268.722 162.689C268.574 162.734 268.425 162.756 268.276 162.756C268.127 162.756 267.978 162.734 267.859 162.689C267.71 162.644 267.591 162.577 267.502 162.51C267.383 162.42 267.323 162.331 267.264 162.241C267.204 162.13 267.174 162.018 267.174 161.906C267.174 161.794 267.204 161.682 267.264 161.57C267.323 161.458 267.413 161.369 267.502 161.302C267.621 161.212 267.74 161.168 267.859 161.123C268.008 161.078 268.127 161.056 268.276 161.056C268.425 161.056 268.574 161.078 268.722 161.123C268.871 161.168 268.99 161.235 269.08 161.302C269.199 161.391 269.258 161.481 269.318 161.57C269.377 161.682 269.407 161.794 269.407 161.906Z" fill="#844317"/>
<path d="M276.254 169.445H278.725V171.168H271.61V169.445H273.932V164.613C273.932 164.523 273.962 164.456 274.051 164.389C274.14 164.322 274.23 164.3 274.349 164.3H275.807C275.926 164.3 276.016 164.322 276.105 164.389C276.194 164.456 276.224 164.523 276.224 164.613V169.445H276.254ZM274.855 173.54C274.855 173.651 274.825 173.786 274.765 173.875C274.706 173.965 274.617 174.076 274.527 174.144C274.408 174.233 274.289 174.278 274.17 174.323C274.021 174.367 273.872 174.39 273.724 174.39C273.575 174.39 273.426 174.367 273.277 174.323C273.128 174.278 273.009 174.211 272.92 174.144C272.801 174.054 272.741 173.965 272.682 173.875C272.622 173.786 272.592 173.651 272.592 173.54C272.592 173.428 272.622 173.316 272.682 173.204C272.741 173.092 272.831 173.003 272.92 172.935C273.039 172.868 273.158 172.801 273.277 172.756C273.426 172.712 273.575 172.689 273.724 172.689C273.872 172.689 274.021 172.712 274.17 172.756C274.319 172.801 274.438 172.868 274.527 172.935C274.646 173.003 274.706 173.092 274.765 173.204C274.825 173.316 274.855 173.428 274.855 173.54ZM277.921 173.54C277.921 173.651 277.891 173.786 277.832 173.875C277.772 173.965 277.683 174.076 277.593 174.144C277.504 174.233 277.355 174.278 277.236 174.323C277.117 174.367 276.939 174.39 276.79 174.39C276.641 174.39 276.492 174.367 276.343 174.323C276.194 174.278 276.075 174.211 275.986 174.144C275.867 174.054 275.807 173.965 275.748 173.875C275.688 173.786 275.659 173.651 275.659 173.54C275.659 173.428 275.688 173.316 275.748 173.204C275.807 173.092 275.897 173.003 275.986 172.935C276.105 172.868 276.224 172.801 276.343 172.756C276.492 172.712 276.641 172.689 276.79 172.689C276.939 172.689 277.087 172.712 277.236 172.756C277.385 172.801 277.504 172.868 277.593 172.935C277.683 173.003 277.772 173.092 277.832 173.204C277.891 173.316 277.921 173.428 277.921 173.54Z" fill="#844317"/>
<path d="M278.725 169.445H279.856V166.291C279.856 165.575 280.064 165.06 280.481 164.747C280.898 164.434 281.493 164.277 282.267 164.277H284.857C285.631 164.277 286.226 164.434 286.643 164.747C287.06 165.06 287.268 165.575 287.268 166.291V169.132C287.268 169.848 287.06 170.363 286.643 170.676C286.226 170.989 285.631 171.146 284.857 171.146H278.695V169.445H278.725ZM284.976 169.445V166H282.118V169.445H284.976ZM284.768 161.906C284.768 162.018 284.738 162.13 284.678 162.241C284.619 162.353 284.53 162.443 284.44 162.51C284.321 162.599 284.202 162.644 284.083 162.689C283.934 162.734 283.785 162.756 283.637 162.756C283.488 162.756 283.339 162.734 283.19 162.689C283.041 162.644 282.922 162.577 282.833 162.51C282.714 162.42 282.654 162.331 282.595 162.241C282.535 162.13 282.505 162.018 282.505 161.906C282.505 161.794 282.535 161.682 282.595 161.57C282.654 161.458 282.744 161.369 282.833 161.302C282.952 161.212 283.071 161.168 283.19 161.123C283.339 161.078 283.488 161.056 283.637 161.056C283.785 161.056 283.934 161.078 284.083 161.123C284.232 161.168 284.351 161.235 284.44 161.302C284.559 161.391 284.619 161.481 284.678 161.57C284.738 161.682 284.768 161.794 284.768 161.906Z" fill="#844317"/>
<path d="M297.241 169.445V171.168H288.935C288.816 171.168 288.727 171.146 288.638 171.079C288.548 171.011 288.519 170.944 288.519 170.855V169.759C288.519 169.669 288.548 169.602 288.638 169.535C288.727 169.468 288.816 169.445 288.935 169.445H293.788V166H290.067C289.947 166 289.858 165.978 289.769 165.91C289.68 165.843 289.65 165.776 289.65 165.709V164.613C289.65 164.523 289.68 164.456 289.769 164.389C289.858 164.322 289.947 164.3 290.067 164.3H293.669C294.443 164.3 295.038 164.456 295.455 164.77C295.871 165.083 296.08 165.597 296.08 166.313V169.468H297.241V169.445Z" fill="#844317"/>
<path d="M311.947 169.445V171.168H297.122V169.445H298.223V164.591C298.223 164.501 298.253 164.434 298.342 164.367C298.432 164.3 298.521 164.277 298.64 164.277H300.099C300.218 164.277 300.307 164.3 300.396 164.367C300.486 164.434 300.515 164.501 300.515 164.591V165.575H308.374C309.148 165.575 309.744 165.731 310.161 166.045C310.577 166.358 310.786 166.873 310.786 167.588V169.445H311.947ZM308.523 169.445V167.275H300.545V169.445H308.523Z" fill="#844317"/>
<path d="M313.018 169.445V162.018C313.018 161.928 313.048 161.861 313.137 161.794C313.227 161.727 313.316 161.704 313.435 161.704H314.894C315.013 161.704 315.102 161.727 315.191 161.794C315.281 161.861 315.311 161.928 315.311 162.018V169.132C315.311 169.848 315.102 170.363 314.685 170.676C314.269 170.989 313.673 171.146 312.899 171.146H311.917V169.423H313.018V169.445Z" fill="#844317"/>
<path d="M317.067 162.018C317.067 161.928 317.097 161.861 317.186 161.794C317.275 161.727 317.365 161.704 317.484 161.704H318.942C319.061 161.704 319.151 161.727 319.24 161.794C319.329 161.861 319.359 161.928 319.359 162.018V170.9C319.359 170.989 319.329 171.056 319.24 171.123C319.151 171.19 319.061 171.213 318.942 171.213H317.484C317.365 171.213 317.275 171.19 317.186 171.123C317.097 171.056 317.067 170.989 317.067 170.9V162.018Z" fill="#844317"/>
</svg>
