<svg width="432" height="951" viewBox="0 0 432 951" fill="none" xmlns="http://www.w3.org/2000/svg">
<g opacity="0.09">
<path d="M82.5738 52.908L33.3066 123.452H131.841L82.5738 52.908Z" fill="#F6BE85"/>
<path d="M181.108 176.36H279.643L230.375 246.904L181.108 176.36Z" fill="#BC662D"/>
<path d="M133.812 158.724H232.346L183.079 88.1799L133.812 158.724Z" fill="#BC662D"/>
</g>
<g opacity="0.09" clip-path="url(#clip0_45_6952)">
<path d="M82.5738 158.256L33.3066 228.533H131.841L82.5738 158.256Z" fill="#F6BE85"/>
<path d="M181.108 281.241H279.643L230.375 351.517L181.108 281.241Z" fill="#BC662D"/>
<path d="M133.812 263.671H232.346L183.079 193.395L133.812 263.671Z" fill="#BC662D"/>
<path d="M-63.2571 439.363H35.2773L-13.9899 369.086L-63.2571 439.363Z" fill="#BC662D"/>
</g>
<g opacity="0.03" clip-path="url(#clip1_45_6952)">
<path d="M-11.2844 192.393H86.582L37.6488 262.937L-11.2844 192.393Z" fill="#BC662D"/>
<path d="M-58.2602 174.757H39.6062L-9.32701 104.213L-58.2602 174.757Z" fill="#BC662D"/>
<path d="M-15.199 280.573L-64.1322 351.116H33.7342L-15.199 280.573Z" fill="#F6BE85"/>
<path d="M35.6915 386.388H133.558L84.6247 315.844L35.6915 386.388Z" fill="#BC662D"/>
</g>
<g opacity="0.09">
<path d="M-91.4052 708.982H43.8922L-23.7565 805.737L-91.4052 708.982Z" fill="#BC662D"/>
</g>
<g opacity="0.02" clip-path="url(#clip2_45_6952)">
<path d="M139.022 459.07L90.2562 529.614H187.789L139.022 459.07Z" fill="#F6BE85"/>
<path d="M236.555 582.522H334.087L285.321 653.066L236.555 582.522Z" fill="#BC662D"/>
<path d="M189.739 564.886H287.271L238.505 494.342L189.739 564.886Z" fill="#BC662D"/>
<path d="M-5.3255 511.978L-54.0917 582.522H43.4407L-5.3255 511.978Z" fill="#F6BE85"/>
<path d="M92.2068 635.43H189.739L140.973 705.974L92.2068 635.43Z" fill="#BC662D"/>
<path d="M45.3913 617.794H142.924L94.1575 547.25L45.3913 617.794Z" fill="#BC662D"/>
</g>
<defs>
<clipPath id="clip0_45_6952">
<rect width="394.138" height="351.384" fill="white" transform="translate(-15.9606 105.549)"/>
</clipPath>
<clipPath id="clip1_45_6952">
<rect width="391.465" height="352.72" fill="white" transform="translate(-207.017 16.0327)"/>
</clipPath>
<clipPath id="clip2_45_6952">
<rect width="390.129" height="352.72" fill="white" transform="translate(41.49 406.162)"/>
</clipPath>
</defs>
</svg>
